<svg width="41" height="29" viewBox="0 0 41 29" fill="none" xmlns="http://www.w3.org/2000/svg">
<path d="M17.0439 0.40625L16.9971 9.45312C16.9971 12.9219 16.1221 16.4219 14.3721 19.9531C12.6533 23.4844 10.4658 26.375 7.80957 28.625L0.77832 25.0156C1.55957 23.5781 2.3252 22.1406 3.0752 20.7031C3.8252 19.2656 4.4502 17.6875 4.9502 15.9688C5.4502 14.25 5.7002 12.2969 5.7002 10.1094V0.40625H17.0439ZM40.6689 0.40625L40.6221 9.45312C40.6221 12.9219 39.7471 16.4219 37.9971 19.9531C36.2783 23.4844 34.0908 26.375 31.4346 28.625L24.4033 25.0156C25.1846 23.5781 25.9502 22.1406 26.7002 20.7031C27.4502 19.2656 28.0752 17.6875 28.5752 15.9688C29.0752 14.25 29.3252 12.2969 29.3252 10.1094V0.40625H40.6689Z" fill="#CC2946"/>
</svg>
