<svg width="1440" height="519" viewBox="0 0 1440 519" fill="none" xmlns="http://www.w3.org/2000/svg">
<rect x="-4" width="1444" height="510" fill="#F9EEFF"/>
<mask id="mask0_701_3960" style="mask-type:alpha" maskUnits="userSpaceOnUse" x="0" y="0" width="1440" height="508">
<rect width="1440" height="508" transform="matrix(-1 0 0 1 1440 0)" fill="url(#paint0_linear_701_3960)"/>
</mask>
<g mask="url(#mask0_701_3960)">
<path d="M979 799C947.108 684.937 824.592 410.815 615.863 467.101C382.107 530.136 249.907 453.633 223.371 389.915C149.439 212.388 29.8429 127.484 -205 130.057" stroke="#F9F4FF" stroke-width="7"/>
<path d="M1602 438C1512.82 349.386 1255.01 147.798 958.825 217.089C601.386 300.711 570.19 -199.794 543.597 -253.44C504 -333.317 423.737 -314.596 382 -282.146" stroke="#F9F4FF" stroke-width="7"/>
<path d="M1744 600C1703.13 544.49 1588.03 438.388 1454.65 458.059C1287.92 482.647 1161 388.765 1157.77 299.353C1154.54 209.941 1065.26 -18.0589 761.931 70.2353C519.265 140.871 405.533 -3.15688 379 -84" stroke="#F9F4FF" stroke-width="7"/>
<path d="M1232 987C1191.13 931.49 1076.03 825.388 942.65 845.059C775.924 869.647 648.998 775.765 645.771 686.353C642.544 596.941 553.265 368.941 249.931 457.235C7.26479 527.871 -106.467 383.843 -133 303" stroke="#F9F4FF" stroke-width="7"/>
<g opacity="0.1" filter="url(#filter0_d_701_3960)">
<rect width="10" height="10" rx="2" transform="matrix(-1 0 0 1 766 163)" fill="url(#paint1_linear_701_3960)"/>
<rect width="10" height="10" rx="2" transform="matrix(-1 0 0 1 1162 135)" fill="url(#paint2_linear_701_3960)"/>
</g>
<g opacity="0.1" filter="url(#filter1_d_701_3960)">
<rect width="10" height="10" rx="2" transform="matrix(-1 0 0 1 697 363)" fill="url(#paint3_linear_701_3960)"/>
<rect width="10" height="10" rx="2" transform="matrix(-1 0 0 1 393 438)" fill="url(#paint4_linear_701_3960)"/>
<rect width="10" height="10" rx="2" transform="matrix(-1 0 0 1 76 368)" fill="url(#paint5_linear_701_3960)"/>
</g>
</g>
<g filter="url(#filter2_d_701_3960)">
<rect x="43" y="173" width="37" height="37" rx="10" fill="white"/>
</g>
<path d="M56.053 183.694C56.3861 183.369 56.2023 182.804 55.7421 182.737C55.5593 182.71 55.4013 182.595 55.3196 182.43C55.1138 182.013 54.5191 182.013 54.3132 182.43C54.2315 182.595 54.0735 182.71 53.8907 182.737C53.4305 182.804 53.2467 183.369 53.5798 183.694C53.712 183.823 53.7724 184.008 53.7411 184.19C53.6625 184.649 54.1436 184.998 54.5553 184.782C54.7188 184.696 54.9141 184.696 55.0775 184.782C55.4892 184.998 55.9703 184.649 55.8917 184.19C55.8604 184.008 55.9208 183.823 56.053 183.694Z" fill="url(#paint6_linear_701_3960)"/>
<path d="M66.7721 194.912L65.2626 194.744C64.8262 194.696 64.4961 194.327 64.4961 193.888C64.4961 193.609 64.6351 193.353 64.8423 193.166C65.3308 192.727 65.7082 192.167 65.9263 191.533C66.1202 190.969 66.2914 190.387 66.6221 189.891C67.0184 189.296 67.2298 188.597 67.2298 187.883V185.922L67.2297 185.911C67.1825 183.203 64.941 181 62.2331 181C60.9167 181 59.6872 181.513 58.7715 182.445C57.8569 183.376 57.3652 184.612 57.3868 185.927V187.898C57.3868 188.593 57.5713 189.275 57.9216 189.876C58.2106 190.371 58.3578 190.934 58.5364 191.479C58.7513 192.135 59.136 192.715 59.6382 193.166C59.8453 193.353 59.9844 193.609 59.9844 193.888C59.9844 194.327 59.6543 194.696 59.2179 194.744L57.7084 194.912C55.7323 195.131 54.2422 196.796 54.2422 198.785V200.564C54.2422 201.357 54.8849 202 55.6777 202H56.0879C56.6542 202 57.1133 201.541 57.1133 200.975V200.564C57.1133 200.225 57.3887 199.949 57.7285 199.949C58.0683 199.949 58.3438 200.225 58.3438 200.564V200.975C58.3438 201.541 58.8028 202 59.3691 202H65.1113C65.6776 202 66.1367 201.541 66.1367 200.975V200.564C66.1367 200.225 66.4122 199.949 66.752 199.949C67.0917 199.949 67.3672 200.225 67.3672 200.564V200.975C67.3672 201.541 67.8263 202 68.3926 202H68.8027C69.5956 202 70.2383 201.357 70.2383 200.564V198.785C70.2383 196.796 68.7481 195.131 66.7721 194.912ZM63.2656 195.21C63.2656 195.775 62.8056 196.235 62.2402 196.235C61.6748 196.235 61.2148 195.775 61.2148 195.21V195.066C61.2148 194.543 61.7177 194.166 62.2402 194.166C62.7628 194.166 63.2656 194.543 63.2656 195.066V195.21ZM62.2402 192.936C60.7702 192.936 59.5742 191.74 59.5742 190.27V188.391C59.5742 187.897 59.9431 187.484 60.381 187.255C60.9948 186.933 61.8527 186.94 62.4674 187.259C62.8909 187.479 63.3716 187.604 63.8809 187.604C64.4472 187.604 64.9062 188.063 64.9062 188.629V190.27C64.9062 191.74 63.7103 192.936 62.2402 192.936Z" fill="url(#paint7_linear_701_3960)"/>
<g filter="url(#filter3_d_701_3960)">
<rect x="664" y="441" width="32" height="32" rx="10" fill="white"/>
</g>
<path fill-rule="evenodd" clip-rule="evenodd" d="M677.223 450.883C677.259 451.201 677.419 452.63 676.222 452.888C675.279 453.091 674.803 452.276 674.706 451.603C674.659 451.276 674.716 450.941 674.817 450.626C674.949 450.211 675.233 449.672 675.823 449.619C676.595 449.551 677.164 450.396 677.223 450.88L677.223 450.883ZM679.648 448.774C679.648 449.717 679.113 450.481 678.45 450.481C677.788 450.481 677.251 449.717 677.251 448.774C677.251 447.831 677.788 447.069 678.45 447.069C679.113 447.069 679.648 447.831 679.648 448.774ZM682.875 449.047C682.761 449.763 682.193 450.709 681.306 450.593C680.421 450.48 680.22 449.678 680.307 448.875C680.377 448.218 681.163 447.21 681.792 447.355C682.418 447.498 682.991 448.331 682.875 449.047ZM683.477 450.421C684.534 450.421 684.818 451.455 684.818 451.797C684.818 451.823 684.819 451.856 684.82 451.893C684.832 452.354 684.863 453.605 683.648 453.632C682.333 453.66 682.278 452.743 682.278 452.085C682.278 451.396 682.418 450.421 683.477 450.421ZM681.306 452.6C682.048 453.663 683.281 454.652 683.456 454.791C683.471 454.802 683.484 454.812 683.498 454.824C683.64 454.949 684.449 455.742 683.848 457.158C683.251 458.566 681.212 458.028 680.848 457.919C680.81 457.908 680.774 457.896 680.736 457.885C680.526 457.828 679.754 457.65 678.878 457.845C678.382 457.956 677.92 457.993 677.574 458.002C677.169 458.012 676.746 458.017 676.381 457.842C676.024 457.671 675.604 457.301 675.423 456.499C675.132 455.207 676.201 454.412 676.599 454.116C676.67 454.063 676.719 454.026 676.737 454.005C676.765 453.969 676.836 453.908 676.935 453.824C677.232 453.57 677.778 453.103 678.163 452.457C678.679 451.598 680.22 450.91 681.306 452.6ZM679.021 453.335C678.823 453.331 678.662 453.49 678.662 453.688V453.843C678.662 454.122 678.435 454.349 678.156 454.349H677.864C677.842 454.349 677.82 454.35 677.798 454.353C677.642 454.377 676.966 454.529 676.709 455.36C676.614 455.947 676.775 456.309 676.823 456.418L676.832 456.438C676.863 456.511 677.097 456.913 677.671 457.078C677.761 457.104 677.855 457.112 677.949 457.112C678.733 457.112 679.368 456.476 679.368 455.692V453.688C679.368 453.495 679.213 453.338 679.021 453.335ZM678.649 455.88C678.649 456.218 678.375 456.492 678.037 456.492C678.026 456.492 678.016 456.492 678.005 456.491C677.926 456.481 677.568 456.413 677.45 455.966C677.381 455.742 677.46 455.484 677.495 455.383C677.524 455.291 677.647 455.089 677.896 454.985C677.948 454.963 678.005 454.956 678.062 454.956C678.386 454.956 678.649 455.219 678.649 455.543L678.649 455.88ZM680.109 454.435C679.91 454.438 679.75 454.601 679.75 454.8V456.362C679.75 456.405 679.751 456.448 679.762 456.49C679.792 456.611 679.902 456.877 680.288 457.037C680.412 457.088 680.548 457.101 680.682 457.101H680.945C681.679 457.101 682.275 456.505 682.275 455.771V454.828C682.275 454.614 682.101 454.44 681.887 454.44C681.674 454.44 681.5 454.614 681.5 454.828V455.748C681.5 456.129 681.191 456.438 680.811 456.438C680.778 456.438 680.744 456.436 680.712 456.426C680.676 456.415 680.625 456.396 680.58 456.361C680.483 456.288 680.48 456.152 680.48 456.031V454.8C680.48 454.596 680.313 454.432 680.109 454.435Z" fill="url(#paint8_linear_701_3960)"/>
<path fill-rule="evenodd" clip-rule="evenodd" d="M676.893 460.059C675.757 460.059 674.836 460.98 674.836 462.116C674.836 463.251 675.757 464.172 676.893 464.172H682.739C683.875 464.172 684.795 463.251 684.795 462.116C684.795 460.98 683.875 460.059 682.739 460.059H676.893ZM681.453 462.996C681.602 463.089 681.787 463.135 682.007 463.135C682.25 463.135 682.445 463.077 682.592 462.96C682.74 462.842 682.814 462.68 682.814 462.472C682.814 462.26 682.74 462.105 682.592 462.008C682.522 461.959 682.453 461.921 682.386 461.893C682.328 461.869 682.245 461.84 682.138 461.808C681.994 461.765 681.897 461.728 681.847 461.696C681.798 461.663 681.774 461.624 681.774 461.578C681.774 461.535 681.791 461.502 681.825 461.478C681.86 461.451 681.908 461.438 681.971 461.438C682.022 461.438 682.068 461.447 682.109 461.464C682.252 461.524 682.42 461.605 682.554 461.526C682.668 461.459 682.717 461.312 682.631 461.211C682.576 461.147 682.513 461.094 682.441 461.05C682.303 460.965 682.146 460.923 681.968 460.923C681.76 460.923 681.584 460.983 681.44 461.105C681.301 461.226 681.231 461.385 681.231 461.581C681.231 461.754 681.285 461.894 681.392 461.999C681.499 462.104 681.656 462.186 681.862 462.244C682.007 462.287 682.096 462.314 682.129 462.326C682.223 462.367 682.271 462.417 682.271 462.478C682.271 462.573 682.188 462.62 682.022 462.62C681.937 462.62 681.863 462.603 681.8 462.569C681.656 462.492 681.479 462.411 681.337 462.494C681.223 462.56 681.169 462.702 681.247 462.808C681.302 462.882 681.371 462.945 681.453 462.996ZM678.916 462.729C678.975 462.907 678.842 463.09 678.655 463.09H678.61C678.515 463.09 678.432 463.028 678.405 462.937C678.378 462.846 678.294 462.784 678.2 462.784H677.813C677.718 462.784 677.635 462.846 677.608 462.937C677.581 463.028 677.497 463.09 677.402 463.09H677.356C677.168 463.09 677.035 462.906 677.094 462.727L677.571 461.282C677.633 461.095 677.807 460.968 678.005 460.968C678.202 460.968 678.377 461.095 678.439 461.282L678.916 462.729ZM678.159 462.112C678.113 461.96 677.897 461.96 677.853 462.113C677.823 462.215 677.899 462.317 678.006 462.317C678.113 462.317 678.189 462.214 678.159 462.112ZM679.189 461.832C679.189 461.355 679.576 460.968 680.053 460.968C680.344 460.968 680.589 461.07 680.787 461.274C680.985 461.479 681.084 461.73 681.084 462.029C681.084 462.33 680.985 462.583 680.787 462.787C680.591 462.989 680.346 463.09 680.053 463.09C679.576 463.09 679.189 462.703 679.189 462.226V461.832ZM679.747 462.26C679.747 462.429 679.884 462.566 680.053 462.566C680.199 462.566 680.319 462.517 680.414 462.42C680.507 462.321 680.553 462.191 680.553 462.029C680.553 461.865 680.507 461.736 680.414 461.641C680.321 461.542 680.201 461.493 680.053 461.493C679.884 461.493 679.747 461.63 679.747 461.799V462.26Z" fill="url(#paint9_linear_701_3960)"/>
<line opacity="0.3" x1="882" y1="284.5" x2="1141" y2="284.5" stroke="white"/>
<g filter="url(#filter4_d_701_3960)">
<rect x="90" y="442" width="32" height="32" rx="10" fill="white"/>
</g>
<path fill-rule="evenodd" clip-rule="evenodd" d="M104.293 451.977C103.814 451.844 103.298 452.103 103.104 452.561C102.079 454.993 101.132 455.607 101.132 455.607C101.132 455.607 101.132 455.607 101.132 455.607C101.132 455.607 101.132 455.607 101.132 455.607C101.132 455.607 101.273 455.674 101.471 455.769C102.102 456.075 102.877 455.954 103.324 455.413C103.398 455.323 103.458 455.249 103.499 455.198C103.541 455.145 103.517 455.138 103.578 455.11C103.917 454.959 104.308 455.258 104.118 455.576C103.853 456.017 103.585 456.381 103.38 456.64C103.185 456.884 103.204 457.247 103.438 457.453C103.655 457.644 103.983 457.633 104.19 457.433C104.454 457.178 104.733 456.913 104.899 456.757C104.994 456.667 105.119 456.618 105.25 456.618C105.534 456.618 105.764 456.848 105.764 457.132V457.238C105.764 457.58 105.487 457.857 105.144 457.857H103.433C103.162 457.857 102.943 458.077 102.943 458.348C102.943 458.618 103.161 458.837 103.431 458.839L104.569 458.845C105.241 458.849 105.783 459.005 105.789 459.678C105.794 460.353 105.103 461.46 104.66 460.95C104.49 460.755 104.501 460.522 104.507 460.4C104.508 460.381 104.508 460.365 104.508 460.353C104.508 459.883 104.19 459.468 103.72 459.465L103.41 459.462C102.941 459.458 102.516 459.77 102.503 460.24C102.503 460.266 102.502 460.293 102.502 460.32C102.502 461.723 103.187 462.212 103.66 462.424C103.882 462.523 104.172 462.569 104.418 462.589C104.749 462.617 105.082 462.618 105.414 462.603C105.919 462.581 106.744 462.486 107.835 462.163C108.305 462.024 108.663 461.853 108.921 461.698C109.175 461.547 109.571 461.66 109.65 461.945C109.709 462.157 109.938 462.272 110.144 462.192L110.588 462.018C111.003 461.855 111.206 461.385 111.039 460.971L110.515 459.675C110.384 459.351 110.187 459.132 109.854 459.24C109.491 459.358 109.126 459.796 109.175 460.175C109.178 460.198 109.18 460.222 109.183 460.247C109.196 460.353 109.154 460.459 109.067 460.521C108.982 460.581 108.902 460.632 108.826 460.676C108.444 460.897 108.08 460.582 108.08 460.142V459.904C108.08 459.332 108.544 458.869 109.116 458.869H110.347C110.617 458.869 110.836 458.649 110.836 458.379C110.836 458.109 110.617 457.89 110.347 457.89H108.732C108.372 457.89 108.08 457.598 108.08 457.238C108.08 456.877 108.372 456.585 108.732 456.585H110.379C110.649 456.585 110.869 456.366 110.869 456.095C110.869 455.825 110.652 455.606 110.382 455.605C109.542 455.602 107.804 455.598 106.726 455.6C106.406 455.601 106.219 455.201 106.391 454.932C106.423 454.881 106.452 454.833 106.478 454.791C106.551 454.667 106.612 454.547 106.472 454.51C106.267 454.456 106.13 454.16 106.332 454.096C107.117 453.845 108.1 453.606 108.292 453.568C108.537 453.519 109.336 453.389 110.347 453.584C111.251 453.759 111.412 454.417 111.483 454.706C111.491 454.74 111.498 454.769 111.505 454.791C111.57 455.003 111.554 461.266 111.538 461.592C111.535 461.648 111.525 461.706 111.51 461.763C111.411 462.153 111.142 462.49 110.787 462.679C110.503 462.831 110.149 462.929 109.76 462.929C109.48 462.929 109.168 462.873 108.902 462.807C108.564 462.725 108.203 462.917 108.121 463.255C108.051 463.543 108.212 463.831 108.502 463.887C108.851 463.954 109.377 464.022 110.07 464.022C111.423 464.022 112.19 463.729 112.826 463.125C113.353 462.625 113.511 462.068 113.549 461.893C113.557 461.855 113.563 461.818 113.569 461.78C114.013 458.843 113.77 455.617 113.544 454.645C113.315 453.666 112.402 453.063 111.505 452.769C110.705 452.507 109.699 452.518 109.489 452.523C109.462 452.524 109.437 452.524 109.41 452.524C108.007 452.531 106.462 452.86 105.584 453.08C105.319 453.146 105.091 452.86 105.221 452.62C105.315 452.446 105.222 452.231 105.032 452.179C104.824 452.123 104.554 452.049 104.293 451.977ZM101.931 453.193C101.931 453.905 101.289 454.482 100.496 454.482C99.7037 454.482 99.061 453.905 99.061 453.193C99.061 452.482 99.7037 451.905 100.496 451.905C101.289 451.905 101.931 452.482 101.931 453.193ZM99.0642 456.839C98.7004 456.61 98.5963 456.13 98.8286 455.768C99.0759 455.383 99.5999 455.294 99.959 455.577C100.315 455.858 100.716 456.178 100.903 456.341L100.935 456.368C101.315 456.698 101.947 457.246 101.931 458.118C101.915 459.015 101.654 459.798 101.442 460.336C101.314 460.66 100.763 461.813 100.343 462.683C100.077 463.234 99.3914 463.431 98.8718 463.107C98.2935 462.747 98.2139 461.933 98.6954 461.451C99.3321 460.813 100.122 459.978 100.545 459.358C100.789 458.999 101.083 458.053 100.251 457.564C99.853 457.33 99.4139 457.058 99.0642 456.839Z" fill="url(#paint10_linear_701_3960)"/>
<g filter="url(#filter5_d_701_3960)">
<rect x="320" y="386" width="41" height="41" rx="14" fill="white"/>
</g>
<g clip-path="url(#clip0_701_3960)">
<path d="M339.512 415.554C335.81 415.919 332.614 414.248 332.373 411.82C332.132 409.393 334.94 407.129 338.642 406.764C342.345 406.398 345.541 408.069 345.781 410.496C346.021 412.924 343.215 415.188 339.512 415.554ZM346.918 407.495C346.603 407.401 346.387 407.337 346.552 406.924C346.909 406.026 346.946 405.253 346.559 404.7C345.833 403.665 343.846 403.72 341.569 404.673C341.569 404.671 340.854 404.985 341.037 404.419C341.387 403.294 341.334 402.352 340.789 401.808C339.554 400.574 336.269 401.855 333.451 404.667C331.342 406.775 330.117 409.008 330.117 410.939C330.117 414.632 334.86 416.878 339.5 416.878C345.582 416.878 349.629 413.348 349.629 410.546C349.629 408.853 348.201 407.893 346.918 407.495Z" fill="url(#paint11_linear_701_3960)"/>
<path d="M350.957 400.736C349.488 399.11 347.321 398.49 345.321 398.915H345.321C345.211 398.938 345.106 398.983 345.014 399.047C344.921 399.11 344.842 399.192 344.781 399.286C344.72 399.38 344.678 399.485 344.657 399.596C344.637 399.706 344.638 399.82 344.662 399.93C344.685 400.039 344.73 400.143 344.794 400.236C344.858 400.328 344.939 400.407 345.034 400.469C345.128 400.53 345.234 400.572 345.344 400.592C345.455 400.612 345.568 400.611 345.678 400.587C347.101 400.285 348.641 400.727 349.686 401.882C350.181 402.43 350.523 403.099 350.677 403.82C350.831 404.542 350.793 405.292 350.565 405.994L350.565 405.995C350.531 406.101 350.517 406.214 350.526 406.326C350.535 406.438 350.566 406.547 350.617 406.647C350.669 406.747 350.739 406.836 350.825 406.909C350.911 406.982 351.01 407.037 351.117 407.071C351.333 407.141 351.568 407.122 351.77 407.019C351.972 406.916 352.125 406.738 352.195 406.522L352.195 406.518C352.822 404.576 352.426 402.361 350.957 400.736Z" fill="url(#paint12_linear_701_3960)"/>
<path d="M348.701 402.769C347.986 401.977 346.931 401.676 345.956 401.883C345.859 401.901 345.767 401.938 345.685 401.992C345.602 402.046 345.531 402.116 345.477 402.198C345.422 402.28 345.384 402.372 345.365 402.468C345.347 402.565 345.348 402.665 345.368 402.761C345.389 402.857 345.428 402.948 345.485 403.029C345.541 403.11 345.614 403.178 345.697 403.231C345.781 403.283 345.874 403.318 345.971 403.334C346.068 403.35 346.168 403.346 346.264 403.322V403.323C346.506 403.271 346.757 403.284 346.993 403.36C347.228 403.436 347.44 403.572 347.606 403.755C347.772 403.939 347.887 404.163 347.938 404.405C347.99 404.647 347.977 404.898 347.9 405.134H347.9C347.84 405.319 347.856 405.521 347.945 405.695C348.034 405.869 348.189 406.001 348.375 406.061C348.561 406.121 348.763 406.104 348.937 406.015C349.111 405.926 349.243 405.772 349.303 405.586C349.609 404.64 349.418 403.561 348.701 402.769Z" fill="url(#paint13_linear_701_3960)"/>
<path d="M339.716 411.157C339.586 411.379 339.3 411.485 339.076 411.393C338.855 411.302 338.786 411.055 338.912 410.837C339.041 410.621 339.316 410.516 339.536 410.603C339.76 410.684 339.84 410.935 339.716 411.157ZM338.536 412.67C338.178 413.24 337.411 413.49 336.834 413.227C336.264 412.968 336.096 412.305 336.455 411.749C336.809 411.195 337.55 410.948 338.123 411.188C338.703 411.435 338.888 412.093 338.536 412.67ZM339.882 408.631C338.12 408.173 336.128 409.05 335.363 410.601C334.584 412.182 335.338 413.937 337.117 414.511C338.961 415.105 341.135 414.195 341.89 412.488C342.636 410.82 341.705 409.102 339.882 408.631Z" fill="url(#paint14_linear_701_3960)"/>
</g>
<g clip-path="url(#clip1_701_3960)">
<g filter="url(#filter6_d_701_3960)">
<rect x="253" y="411" width="62" height="62" rx="15" fill="white"/>
</g>
<path d="M277.114 431.791L277.784 430.894L277.64 431.154C277.623 431.184 277.632 431.223 277.658 431.241C277.685 431.26 277.72 431.251 277.736 431.221L278.002 430.742L278.272 431.226C278.288 431.256 278.323 431.265 278.349 431.247C278.376 431.228 278.384 431.189 278.367 431.16L278.224 430.899L278.878 431.834C278.88 432.619 278.537 432.838 278.166 432.989H277.842C277.498 432.795 277.139 432.59 277.114 431.791ZM283.737 432.765L275.19 438.551L275.191 427L283.737 432.765ZM276.375 433.031C276.529 433.185 276.872 433.254 277.284 433.254C277.697 433.254 277.883 433.174 277.871 433.114H278.137C278.125 433.174 278.48 433.268 278.793 433.268C279.106 433.268 279.489 433.166 279.602 433.053C279.714 432.94 279.866 432.249 279.47 431.85C279.467 431.842 278.138 430.666 278.138 430.666C278.216 430.678 278.294 430.686 278.373 430.689C278.414 430.691 278.454 430.685 278.493 430.672C278.609 430.622 278.666 430.475 278.621 430.346C278.576 430.216 278.446 430.152 278.33 430.202C278.234 430.244 278.051 430.501 278.015 430.552L278.009 430.56C278.006 430.56 278.002 430.56 277.999 430.56L277.993 430.552C277.956 430.501 277.774 430.244 277.678 430.203C277.562 430.152 277.432 430.216 277.387 430.346C277.386 430.348 277.386 430.35 277.385 430.351C277.342 430.48 277.4 430.624 277.515 430.673C277.554 430.685 277.594 430.691 277.635 430.689C277.711 430.687 277.786 430.679 277.862 430.668C277.862 430.668 276.531 431.847 276.528 431.862C276.121 432.273 276.222 432.876 276.375 433.031ZM279.648 433.715H278.027H276.402V433.924C276.402 433.924 277.336 433.944 277.808 435.228H278.242C278.714 433.944 279.648 433.925 279.648 433.925V433.715H279.648ZM277.637 430.318C277.624 430.313 277.61 430.31 277.596 430.31C277.535 430.309 277.485 430.364 277.484 430.433C277.483 430.451 277.487 430.469 277.494 430.486C277.506 430.517 277.528 430.54 277.555 430.552C277.651 430.565 277.747 430.561 277.842 430.542C277.784 430.457 277.715 430.381 277.637 430.318ZM278.453 430.554C278.51 430.529 278.538 430.456 278.516 430.392C278.493 430.327 278.428 430.295 278.371 430.321C278.293 430.383 278.225 430.459 278.167 430.544C278.261 430.563 278.357 430.567 278.453 430.554ZM272.009 432.665L271.817 432.272L271.625 432.665L271.195 432.727L271.506 433.033L271.432 433.464L271.817 433.261L272.201 433.464L272.128 433.033L272.439 432.727L272.009 432.665ZM274.605 427L274.606 438.551L266.059 432.765L274.605 427ZM274.261 432.235L272.717 431.068L272.709 430.996L272.623 430.997L272.622 430.996L272.622 430.997L272.573 430.998C272.491 431.283 272.158 431.497 271.758 431.497C271.371 431.497 271.048 431.296 270.954 431.024L270.836 431.025L269.197 432.264L270.017 433.178L270.708 432.774L270.544 435.007H273.149L272.911 432.839L273.441 433.149L274.261 432.235ZM297.34 433.684C297.339 433.684 297.287 433.703 297.135 433.643C297.025 433.601 296.996 433.55 296.995 433.528C297 433.482 296.968 433.439 296.922 433.432C296.875 433.423 296.829 433.456 296.821 433.504C296.818 433.524 296.797 433.702 297.072 433.809C297.18 433.85 297.258 433.864 297.315 433.864C297.383 433.864 297.42 433.844 297.436 433.831C297.475 433.801 297.487 433.741 297.457 433.703C297.427 433.664 297.378 433.654 297.34 433.684ZM302 432.765L293.453 438.551L293.454 427L302 432.765ZM294.956 432.6C294.956 432.6 295.476 432.677 295.911 432.286C296.346 431.895 296.532 431.183 296.532 431.183C296.532 431.183 295.593 431.302 295.253 431.623C294.827 432.024 294.956 432.6 294.956 432.6ZM298.337 434.006C298.337 433.678 298.179 433.397 297.843 433.277C297.736 433.239 297.548 433.277 297.418 433.28C297.422 433.114 297.414 432.738 297.287 432.439C297.219 432.28 297.144 432.158 297.083 432.06C297.002 431.929 296.943 431.833 296.943 431.722C296.943 431.72 296.942 431.719 296.942 431.717C296.942 431.69 296.943 431.663 296.943 431.634C296.943 431.24 296.964 431.072 296.964 431.07C296.97 431.022 296.936 430.977 296.888 430.971C296.841 430.965 296.796 430.999 296.79 431.047C296.789 431.054 296.767 431.226 296.767 431.634C296.767 431.993 296.767 432.128 296.365 432.533C296.241 432.658 296.142 432.764 296.03 432.885L295.913 433.011C295.752 433.183 295.571 433.445 295.547 433.479C295.418 433.472 295.256 433.458 295.167 433.495C294.886 433.61 294.792 433.854 294.792 434.135C294.792 434.528 295.198 435.007 295.637 435.007C295.944 435.007 296.264 434.757 296.4 434.47C296.326 434.32 296.284 434.159 296.284 434.006C296.284 433.88 296.301 433.772 296.327 433.678C296.256 433.592 296.161 433.523 296.037 433.479C295.969 433.455 295.864 433.465 295.766 433.474C295.837 433.377 295.944 433.235 296.041 433.132L296.159 433.006C296.269 432.886 296.366 432.782 296.489 432.658C296.729 432.416 296.84 432.252 296.894 432.087C296.907 432.109 296.92 432.131 296.934 432.154C296.994 432.252 297.063 432.362 297.126 432.509C297.238 432.773 297.245 433.122 297.242 433.275C297.111 433.267 296.963 433.259 296.877 433.295C296.564 433.423 296.46 433.693 296.46 434.006C296.46 434.442 296.88 434.973 297.398 434.973C297.916 434.973 298.337 434.442 298.337 434.006ZM295.581 433.837C295.581 433.837 295.534 433.851 295.403 433.801C295.293 433.758 295.283 433.711 295.282 433.705C295.286 433.659 295.255 433.617 295.209 433.609C295.162 433.601 295.116 433.634 295.108 433.682C295.105 433.701 295.085 433.867 295.34 433.966C295.437 434.004 295.509 434.016 295.561 434.016C295.626 434.016 295.661 433.997 295.676 433.985C295.715 433.954 295.728 433.895 295.698 433.856C295.668 433.818 295.62 433.807 295.581 433.837ZM288.96 432.78C288.92 432.78 288.887 432.813 288.887 432.854V434.808C288.887 434.848 288.92 434.881 288.96 434.881C289 434.881 289.033 434.848 289.033 434.808V432.854C289.033 432.813 289 432.78 288.96 432.78ZM292.867 427L292.869 438.551L284.321 432.765L292.867 427ZM291.821 432.964C291.821 433.066 291.903 433.149 292.004 433.149C292.105 433.149 292.187 433.066 292.187 432.964C292.187 432.863 292.105 432.78 292.004 432.78C291.903 432.78 291.821 432.863 291.821 432.964ZM291.47 432.611C291.47 432.672 291.519 432.721 291.58 432.721C291.64 432.721 291.689 432.672 291.689 432.611C291.689 432.549 291.64 432.5 291.58 432.5C291.519 432.5 291.47 432.549 291.47 432.611ZM291.287 433.009C291.287 433.066 291.333 433.112 291.389 433.112C291.446 433.112 291.492 433.066 291.492 433.009C291.492 432.952 291.446 432.905 291.389 432.905C291.333 432.905 291.287 432.952 291.287 433.009ZM290.987 432.293C290.987 432.359 291.039 432.411 291.104 432.411C291.169 432.411 291.221 432.359 291.221 432.293C291.221 432.228 291.169 432.176 291.104 432.176C291.039 432.176 290.987 432.228 290.987 432.293ZM290.775 433.023C290.775 433.076 290.817 433.119 290.87 433.119C290.922 433.119 290.965 433.076 290.965 433.023C290.965 432.97 290.922 432.928 290.87 432.928C290.817 432.928 290.775 432.97 290.775 433.023ZM290.427 434.083C290.082 433.917 289.855 433.644 289.855 433.333H290.427C290.427 433.234 290.427 433.152 290.427 433.104C290.427 432.795 289.787 432.183 289.787 431.866C289.787 431.645 289.759 431.045 289.743 430.701H289.864V430.259H289.132V430.701H289.253C289.236 431.045 289.209 431.645 289.209 431.866C289.209 432.183 288.569 432.765 288.569 433.104C288.569 433.444 288.569 435.021 288.569 435.021C288.569 435.119 288.647 435.198 288.744 435.198H290.252C290.348 435.198 290.427 435.119 290.427 435.021C290.427 435.021 290.427 434.559 290.427 434.083ZM292.395 433.463H290.017C290.017 433.782 290.512 434.042 291.135 434.061C291.135 434.168 291.135 434.991 291.135 435.025C291.135 435.062 290.696 435.066 290.696 435.066C290.65 435.066 290.612 435.104 290.612 435.15C290.612 435.197 290.65 435.235 290.696 435.235H291.713C291.759 435.235 291.797 435.197 291.797 435.15C291.797 435.104 291.759 435.066 291.713 435.066C291.713 435.066 291.274 435.062 291.274 435.025C291.274 434.991 291.274 434.168 291.274 434.061C291.899 434.043 292.395 433.783 292.395 433.463ZM275.191 439.961L283.737 445.726L275.19 451.512L275.191 439.961ZM276.917 444.565C276.917 444.636 276.983 444.694 277.065 444.694H277.471C277.552 444.694 277.619 444.636 277.619 444.565V444.44C277.619 444.369 277.552 444.311 277.471 444.311H277.065C276.983 444.311 276.917 444.369 276.917 444.44V444.565ZM276.565 447.258C276.565 447.34 276.632 447.407 276.714 447.407H280.076C280.157 447.407 280.224 447.34 280.224 447.258V444.961C280.224 444.879 280.157 444.812 280.076 444.812H279.628C279.505 444.532 279.359 444.222 279.315 444.222H278.089C278.044 444.222 277.899 444.532 277.776 444.812H276.714C276.632 444.812 276.565 444.879 276.565 444.961V447.258H276.565ZM277.561 446.043C277.561 445.404 278.075 444.886 278.709 444.886C279.344 444.886 279.858 445.404 279.858 446.043C279.858 446.683 279.344 447.201 278.709 447.201C278.075 447.201 277.561 446.683 277.561 446.043ZM277.936 446.043C277.936 446.474 278.282 446.822 278.709 446.822C279.136 446.822 279.483 446.474 279.483 446.043C279.483 445.613 279.136 445.264 278.709 445.264C278.282 445.264 277.936 445.613 277.936 446.043ZM278.453 445.888C278.544 445.703 278.609 445.538 278.495 445.481C278.38 445.423 278.213 445.527 278.122 445.712C278.031 445.897 278.05 446.093 278.164 446.151C278.279 446.208 278.362 446.073 278.453 445.888ZM274.605 439.961L274.606 451.512L266.059 445.726L274.605 439.961ZM268.144 446.112C268.47 446.109 269.29 446.095 270.328 446.039C270.527 446.028 270.746 446.014 270.974 445.997C270.956 445.959 270.936 445.918 270.911 445.877C270.794 445.677 270.499 445.406 270.496 445.403L270.614 445.272C270.627 445.284 270.932 445.564 271.062 445.787C271.103 445.857 271.135 445.923 271.16 445.983C271.248 445.976 271.336 445.969 271.425 445.962C271.411 445.934 271.396 445.906 271.379 445.877C271.263 445.677 270.967 445.406 270.964 445.403L271.082 445.272C271.095 445.284 271.4 445.564 271.531 445.787C271.563 445.843 271.59 445.897 271.613 445.947C271.7 445.939 271.787 445.932 271.874 445.925C271.865 445.909 271.857 445.893 271.848 445.877C271.731 445.677 271.436 445.406 271.433 445.403L271.551 445.272C271.563 445.284 271.869 445.564 271.999 445.787C272.023 445.829 272.044 445.869 272.063 445.908C272.15 445.9 272.236 445.893 272.32 445.885C272.319 445.882 272.318 445.879 272.316 445.877C272.199 445.677 271.904 445.406 271.901 445.403L272.019 445.272C272.032 445.284 272.337 445.564 272.467 445.787C272.483 445.814 272.498 445.841 272.511 445.867C272.991 445.823 273.41 445.781 273.66 445.755L273.648 445.743C273.671 445.715 273.759 445.548 273.622 444.996C273.61 444.996 273.451 444.479 273.336 444.192C273.329 444.173 273.316 444.16 273.297 444.155C273.297 444.155 273.066 444.02 272.934 444.23C272.803 444.44 272.762 444.759 272.495 444.777C272.229 444.795 272.121 444.691 272.045 444.589C271.97 444.487 271.947 444.44 271.919 444.324C271.892 444.208 271.887 444.048 271.799 444.014L271.704 443.98C271.597 443.94 271.486 444.008 271.409 444.08C271.332 444.152 271.206 444.285 270.992 444.39C270.778 444.495 270.585 444.523 270.585 444.523L270.504 444.609C270.498 444.61 270.498 444.616 270.498 444.616L270.498 444.623L270.517 444.657L270.43 444.721L270.361 444.693C270.355 444.693 270.355 444.693 270.355 444.693L270.242 444.755C270.236 444.755 270.237 444.768 270.237 444.768L270.263 444.807L270.168 444.86L270.092 444.825L270.086 444.826C270.086 444.826 270.086 444.826 270.08 444.826L269.974 444.894L269.974 444.9L270.008 444.951L269.911 445L269.847 444.964C269.847 444.964 269.841 444.958 269.841 444.965L269.728 445.019L269.722 445.027L269.722 445.033L269.744 445.085L269.657 445.143L269.594 445.108L269.588 445.108C269.588 445.108 269.588 445.108 269.581 445.109L269.474 445.163L269.468 445.17L269.469 445.177L269.49 445.229L269.377 445.291L269.325 445.255C269.325 445.255 269.319 445.248 269.313 445.256C269.278 445.278 269.249 445.307 269.22 445.336C269.214 445.343 269.214 445.343 269.22 445.349L269.242 445.383C269.22 445.418 269.108 445.453 268.883 445.575C268.658 445.697 268.297 445.866 268.144 446.112ZM273.726 446.347L273.7 445.9L273.699 445.894C273.099 445.955 271.428 446.09 270.335 446.18C269.044 446.287 268.424 446.251 268.117 446.254L268.111 446.562C268.112 446.575 268.118 446.581 268.131 446.587L268.447 446.632C268.775 446.676 269.114 446.693 269.444 446.67L273.703 446.375C273.715 446.375 273.727 446.36 273.726 446.347ZM298.737 445.313C298.737 445.24 298.713 445.185 298.662 445.139C298.508 445.004 298.17 444.994 297.969 445.007C297.923 445.465 297.791 445.88 297.601 446.216C298.181 445.922 298.737 445.553 298.737 445.313ZM293.454 439.961L302 445.726L293.453 451.512L293.454 439.961ZM296.054 443.354C296.035 443.553 296.324 443.722 296.301 443.969C296.277 444.217 296.25 444.372 296.25 444.372C296.25 444.372 296.573 444.081 296.597 443.83C296.622 443.58 296.332 443.415 296.351 443.215C296.37 443.015 296.401 442.812 296.401 442.812C296.401 442.812 296.074 443.154 296.054 443.354ZM294.77 444.635C294.77 445.554 295.106 446.354 295.602 446.769H297.157C297.205 446.729 297.25 446.682 297.295 446.635C297.819 446.405 298.983 445.836 298.983 445.313C298.983 445.17 298.928 445.045 298.824 444.953C298.602 444.757 298.203 444.746 297.983 444.758C297.985 444.717 297.989 444.677 297.989 444.635H295.281C295.274 444.762 295.279 444.94 295.323 445.148C295.412 445.571 295.553 445.777 295.555 445.779C295.593 445.835 295.58 445.912 295.525 445.951C295.503 445.967 295.479 445.974 295.454 445.974C295.416 445.974 295.378 445.956 295.354 445.922C295.347 445.913 295.183 445.678 295.082 445.199C295.034 444.973 295.028 444.78 295.036 444.635H294.77V444.635ZM294.239 446.893C294.239 447.068 294.686 447.221 295.346 447.3H297.413C298.072 447.221 298.519 447.068 298.519 446.893H294.239ZM291.296 445.525C291.315 445.607 291.328 445.691 291.328 445.779C291.328 445.859 291.318 445.937 291.301 446.013C291.261 446.201 291.176 446.373 291.055 446.513C290.987 446.591 290.909 446.66 290.823 446.717C290.648 446.831 290.441 446.898 290.217 446.898C289.993 446.898 289.785 446.831 289.611 446.717C289.524 446.66 289.447 446.591 289.379 446.513C289.209 446.316 289.106 446.06 289.106 445.779C289.106 445.497 289.209 445.241 289.379 445.044C289.447 444.966 289.524 444.897 289.611 444.841C289.785 444.726 289.993 444.659 290.217 444.659C290.441 444.659 290.648 444.726 290.823 444.841C290.909 444.897 290.987 444.966 291.055 445.044C291.172 445.18 291.254 445.345 291.296 445.525ZM290.797 445.296C290.755 445.248 290.681 445.243 290.633 445.286L290.31 445.571C290.282 445.558 290.25 445.55 290.217 445.55C290.196 445.55 290.178 445.556 290.159 445.561L289.71 445.009C289.669 444.959 289.596 444.952 289.547 444.992C289.497 445.033 289.49 445.107 289.53 445.157L289.999 445.733C289.996 445.748 289.99 445.763 289.99 445.779C289.99 445.905 290.091 446.008 290.217 446.008C290.342 446.008 290.444 445.905 290.444 445.779C290.444 445.774 290.442 445.77 290.442 445.766L290.786 445.461C290.834 445.419 290.839 445.345 290.797 445.296ZM289.611 447.016V447.241H290.823V447.016C290.64 447.107 290.435 447.159 290.217 447.159C289.999 447.159 289.794 447.107 289.611 447.016ZM290.823 444.542V444.316H289.611V444.542C289.794 444.45 289.999 444.398 290.217 444.398C290.435 444.398 290.64 444.45 290.823 444.542ZM292.867 439.961L292.869 451.512L284.321 445.726L292.867 439.961ZM291.788 445.768C291.788 445.626 291.841 445.511 291.558 445.503C291.491 445.173 291.309 444.886 291.055 444.688V444.137C291.055 444.107 291.031 444.083 291.001 444.083H290.723V443.56H289.71V444.083H289.433C289.403 444.083 289.379 444.107 289.379 444.137V444.688C289.056 444.94 288.846 445.334 288.846 445.779C288.846 446.223 289.056 446.617 289.379 446.87V447.421C289.379 447.45 289.403 447.474 289.433 447.474H289.71V447.997H290.723V447.474H291.001C291.031 447.474 291.055 447.45 291.055 447.421V446.87C291.315 446.667 291.498 446.372 291.562 446.033C291.84 446.025 291.788 445.91 291.788 445.768ZM284.323 446.449L292.869 452.214L284.321 458L284.323 446.449ZM285.171 451.241H289.178V451.119C289.178 451.022 289.1 450.942 289.003 450.942H287.713C287.219 450.942 287.076 450.235 286.209 450.235C285.496 450.235 285.171 450.799 285.171 451.119C285.171 451.155 285.171 451.196 285.171 451.241ZM284.798 453.094C284.814 453.118 284.841 453.132 284.87 453.132H285.199V453.895C285.199 453.944 285.239 453.984 285.287 453.984C285.336 453.984 285.375 453.944 285.375 453.895V453.132H289.063V453.895C289.063 453.944 289.102 453.984 289.15 453.984C289.199 453.984 289.238 453.944 289.238 453.895V453.132H289.469C289.497 453.132 289.524 453.118 289.541 453.094C289.557 453.07 289.561 453.04 289.551 453.013L289.195 452.05C289.191 452.042 289.184 452.036 289.178 452.029V451.396H285.171C285.171 451.609 285.171 451.856 285.171 452.015C285.16 452.025 285.15 452.036 285.144 452.05L284.788 453.013C284.778 453.04 284.782 453.07 284.798 453.094ZM289.055 452.181H288.727L288.828 452.62H288.163L288.118 452.181H287.824L287.855 452.62H287.285L287.266 452.181H287.002L286.977 452.62H286.407L286.438 452.181H286.175L286.099 452.62H285.47L285.571 452.181H285.283L284.997 452.955H289.342L289.055 452.181ZM283.168 454.371H281.774V452.358H283.168V454.371ZM282.559 454.271C282.559 454.222 282.52 454.183 282.471 454.183C282.423 454.183 282.383 454.222 282.383 454.271C282.383 454.32 282.423 454.36 282.471 454.36C282.52 454.36 282.559 454.32 282.559 454.271ZM283.065 452.472H281.877V454.171H283.065V452.472ZM283.736 446.449L283.737 458L275.19 452.214L283.736 446.449ZM281.617 453.198H280.708H279.766H278.31V450.655H282.163V452.186H282.267V450.555H278.206V453.298H279.766V453.826H279.26V454.172H279.766H280.708H281.214V453.826H280.708V453.298H281.617V453.198ZM281.617 452.186H282.041V450.796H278.432V453.058H279.766H280.708H281.617V452.186ZM283.272 452.258H281.67V454.47H283.272V452.258ZM274.547 439.266L266 445.052L266.001 433.501L274.547 439.266ZM266.951 440.049H270.877L270.645 438.917C270.634 438.863 270.589 438.821 270.531 438.799C270.536 438.776 270.532 438.752 270.518 438.732L269.126 436.663C269.112 436.593 269.07 436.534 269.014 436.496L268.97 436.431C268.954 436.407 268.927 436.393 268.898 436.393H268.898C268.869 436.393 268.841 436.407 268.825 436.431L268.806 436.46C268.69 436.488 268.605 436.592 268.605 436.717C268.605 436.729 268.607 436.74 268.608 436.752L267.269 438.732C267.252 438.757 267.251 438.788 267.262 438.815C267.222 438.839 267.192 438.875 267.183 438.917L266.951 440.049ZM270.945 440.38L270.913 440.226H266.915L266.883 440.38C266.843 440.577 267.033 440.757 267.283 440.757H270.545C270.795 440.757 270.985 440.577 270.945 440.38ZM268.868 436.982C268.806 436.982 268.75 436.96 268.705 436.924L267.448 438.781H270.339L269.067 436.89C269.018 436.946 268.948 436.982 268.868 436.982ZM295.819 438.949C295.816 438.876 295.755 438.818 295.683 438.821C295.61 438.823 295.553 438.885 295.556 438.958C295.558 439.031 295.619 439.089 295.692 439.086C295.765 439.084 295.821 439.022 295.819 438.949ZM301.999 433.501L302 445.052L293.453 439.266L301.999 433.501ZM295.712 439.406C296.048 439.142 296.72 438.959 297.045 438.882C297.318 438.817 297.634 438.783 297.958 438.783C298.506 438.783 299.037 438.876 299.455 439.045C299.698 439.143 299.861 439.228 299.98 439.291C300.115 439.362 300.177 439.393 300.237 439.393C300.266 439.393 300.301 439.387 300.346 439.372C300.365 439.366 300.383 439.362 300.401 439.357C300.19 439.271 299.988 439.162 300.104 439.087C300.319 438.948 300.916 439.076 300.916 439.076C300.916 439.076 300.554 438.623 299.687 438.811C299.365 438.881 299.387 438.679 298.721 438.435C298.527 438.364 298.29 438.314 298.062 438.28C297.955 438.264 297.868 437.889 297.757 437.882C297.597 437.87 297.346 438.247 297.186 438.252C296.883 438.263 296.534 438.298 296.273 438.368C295.805 438.495 295.034 438.791 294.955 439.06C294.914 439.198 295.312 439.325 295.712 439.406ZM300.74 439.718C300.96 439.585 301.563 439.718 301.563 439.718C301.563 439.718 301.19 439.286 300.4 439.541C300.086 439.642 300.049 439.474 299.39 439.209C298.732 438.944 297.788 438.888 297.085 439.054C296.613 439.166 295.779 439.43 295.692 439.696C295.604 439.961 297.162 440.237 297.206 440.171C297.25 440.105 297.25 439.762 297.25 439.762C297.25 439.762 297.261 440.072 297.744 440.403C298.227 440.735 299.182 440.503 298.896 440.436C298.611 440.37 298.359 440.094 298.359 440.094C298.359 440.094 298.561 440.176 298.597 440.184C299.24 440.323 300.215 439.849 300.433 440.016C300.663 440.193 301.432 440.083 301.432 440.083C301.432 440.083 300.521 439.85 300.74 439.718ZM296.427 439.474C296.354 439.474 296.295 439.534 296.295 439.607C296.295 439.68 296.354 439.74 296.427 439.74C296.5 439.74 296.559 439.68 296.559 439.607C296.559 439.534 296.5 439.474 296.427 439.474ZM284.702 440.964L284.175 443.028L283.385 443.411L283.414 442.556L283.473 440.993L282.741 441.023L282.531 440.336L282.061 440.757L281.804 443.618L280.341 442.615L281.102 442.173L281.034 440.9L280.429 441.2L280.019 439.754L280.965 439.6L280.926 438.398L280.136 437.366L280.838 437.218L281.716 435.567L282.273 436.953L282.829 437.159L282.795 437.563L283.765 437.513L283.297 435.537L284.936 436.245L284.563 437.488L285.609 437.277L286.224 435.331L287.658 436.393L286.37 437.336L287.57 437.425L287.98 438.545L287.014 438.516L286.897 439.784L287.863 439.813L288.214 440.964L286.955 441.052L286.663 443.146L285.902 443.647L285.404 440.934L284.704 440.962L284.702 440.964ZM284.994 438.87L284.907 439.607L284.992 439.774L285.843 439.754L285.726 438.604L284.962 438.771L284.994 438.87ZM283.56 438.604L282.916 438.634L282.719 437.916L282.185 438.427V439.371L283.004 439.43L282.814 439.862L283.56 439.843V438.604Z" fill="#B61D5F"/>
</g>
<defs>
<filter id="filter0_d_701_3960" x="492" y="-352" width="806" height="555" filterUnits="userSpaceOnUse" color-interpolation-filters="sRGB">
<feFlood flood-opacity="0" result="BackgroundImageFix"/>
<feColorMatrix in="SourceAlpha" type="matrix" values="0 0 0 0 0 0 0 0 0 0 0 0 0 0 0 0 0 0 127 0" result="hardAlpha"/>
<feOffset dy="10"/>
<feGaussianBlur stdDeviation="10"/>
<feColorMatrix type="matrix" values="0 0 0 0 0.117647 0 0 0 0 0.12549 0 0 0 0 0.231373 0 0 0 0.15 0"/>
<feBlend mode="normal" in2="BackgroundImageFix" result="effect1_dropShadow_701_3960"/>
<feBlend mode="normal" in="SourceGraphic" in2="effect1_dropShadow_701_3960" result="shape"/>
</filter>
<filter id="filter1_d_701_3960" x="-89" y="235" width="806" height="555" filterUnits="userSpaceOnUse" color-interpolation-filters="sRGB">
<feFlood flood-opacity="0" result="BackgroundImageFix"/>
<feColorMatrix in="SourceAlpha" type="matrix" values="0 0 0 0 0 0 0 0 0 0 0 0 0 0 0 0 0 0 127 0" result="hardAlpha"/>
<feOffset dy="10"/>
<feGaussianBlur stdDeviation="10"/>
<feColorMatrix type="matrix" values="0 0 0 0 0.117647 0 0 0 0 0.12549 0 0 0 0 0.231373 0 0 0 0.15 0"/>
<feBlend mode="normal" in2="BackgroundImageFix" result="effect1_dropShadow_701_3960"/>
<feBlend mode="normal" in="SourceGraphic" in2="effect1_dropShadow_701_3960" result="shape"/>
</filter>
<filter id="filter2_d_701_3960" x="21" y="173" width="81" height="82" filterUnits="userSpaceOnUse" color-interpolation-filters="sRGB">
<feFlood flood-opacity="0" result="BackgroundImageFix"/>
<feColorMatrix in="SourceAlpha" type="matrix" values="0 0 0 0 0 0 0 0 0 0 0 0 0 0 0 0 0 0 127 0" result="hardAlpha"/>
<feOffset dy="23"/>
<feGaussianBlur stdDeviation="11"/>
<feColorMatrix type="matrix" values="0 0 0 0 1 0 0 0 0 0.87197 0 0 0 0 0.897438 0 0 0 1 0"/>
<feBlend mode="normal" in2="BackgroundImageFix" result="effect1_dropShadow_701_3960"/>
<feBlend mode="normal" in="SourceGraphic" in2="effect1_dropShadow_701_3960" result="shape"/>
</filter>
<filter id="filter3_d_701_3960" x="642" y="441" width="76" height="77" filterUnits="userSpaceOnUse" color-interpolation-filters="sRGB">
<feFlood flood-opacity="0" result="BackgroundImageFix"/>
<feColorMatrix in="SourceAlpha" type="matrix" values="0 0 0 0 0 0 0 0 0 0 0 0 0 0 0 0 0 0 127 0" result="hardAlpha"/>
<feOffset dy="23"/>
<feGaussianBlur stdDeviation="11"/>
<feColorMatrix type="matrix" values="0 0 0 0 0.836593 0 0 0 0 0.869847 0 0 0 0 0.987748 0 0 0 1 0"/>
<feBlend mode="normal" in2="BackgroundImageFix" result="effect1_dropShadow_701_3960"/>
<feBlend mode="normal" in="SourceGraphic" in2="effect1_dropShadow_701_3960" result="shape"/>
</filter>
<filter id="filter4_d_701_3960" x="68" y="442" width="76" height="77" filterUnits="userSpaceOnUse" color-interpolation-filters="sRGB">
<feFlood flood-opacity="0" result="BackgroundImageFix"/>
<feColorMatrix in="SourceAlpha" type="matrix" values="0 0 0 0 0 0 0 0 0 0 0 0 0 0 0 0 0 0 127 0" result="hardAlpha"/>
<feOffset dy="23"/>
<feGaussianBlur stdDeviation="11"/>
<feColorMatrix type="matrix" values="0 0 0 0 1 0 0 0 0 0.87197 0 0 0 0 0.897438 0 0 0 1 0"/>
<feBlend mode="normal" in2="BackgroundImageFix" result="effect1_dropShadow_701_3960"/>
<feBlend mode="normal" in="SourceGraphic" in2="effect1_dropShadow_701_3960" result="shape"/>
</filter>
<filter id="filter5_d_701_3960" x="298" y="386" width="85" height="86" filterUnits="userSpaceOnUse" color-interpolation-filters="sRGB">
<feFlood flood-opacity="0" result="BackgroundImageFix"/>
<feColorMatrix in="SourceAlpha" type="matrix" values="0 0 0 0 0 0 0 0 0 0 0 0 0 0 0 0 0 0 127 0" result="hardAlpha"/>
<feOffset dy="23"/>
<feGaussianBlur stdDeviation="11"/>
<feColorMatrix type="matrix" values="0 0 0 0 1 0 0 0 0 0.87197 0 0 0 0 0.897438 0 0 0 1 0"/>
<feBlend mode="normal" in2="BackgroundImageFix" result="effect1_dropShadow_701_3960"/>
<feBlend mode="normal" in="SourceGraphic" in2="effect1_dropShadow_701_3960" result="shape"/>
</filter>
<filter id="filter6_d_701_3960" x="231" y="411" width="106" height="107" filterUnits="userSpaceOnUse" color-interpolation-filters="sRGB">
<feFlood flood-opacity="0" result="BackgroundImageFix"/>
<feColorMatrix in="SourceAlpha" type="matrix" values="0 0 0 0 0 0 0 0 0 0 0 0 0 0 0 0 0 0 127 0" result="hardAlpha"/>
<feOffset dy="23"/>
<feGaussianBlur stdDeviation="11"/>
<feColorMatrix type="matrix" values="0 0 0 0 0.889154 0 0 0 0 0.951028 0 0 0 0 0.995833 0 0 0 1 0"/>
<feBlend mode="normal" in2="BackgroundImageFix" result="effect1_dropShadow_701_3960"/>
<feBlend mode="normal" in="SourceGraphic" in2="effect1_dropShadow_701_3960" result="shape"/>
</filter>
<linearGradient id="paint0_linear_701_3960" x1="150.769" y1="73.6303" x2="1349.44" y2="477.583" gradientUnits="userSpaceOnUse">
<stop stop-color="#FBE7F6"/>
<stop offset="0.338133" stop-color="#F7E7F4"/>
<stop offset="0.650651" stop-color="#EBDCF5"/>
<stop offset="1" stop-color="#E1DFF4"/>
</linearGradient>
<linearGradient id="paint1_linear_701_3960" x1="5" y1="0" x2="5" y2="10" gradientUnits="userSpaceOnUse">
<stop stop-color="#A8156E"/>
<stop offset="1" stop-color="#DD3132"/>
</linearGradient>
<linearGradient id="paint2_linear_701_3960" x1="5" y1="0" x2="5" y2="10" gradientUnits="userSpaceOnUse">
<stop stop-color="#A8156E"/>
<stop offset="1" stop-color="#DD3132"/>
</linearGradient>
<linearGradient id="paint3_linear_701_3960" x1="5" y1="0" x2="5" y2="10" gradientUnits="userSpaceOnUse">
<stop stop-color="#A8156E"/>
<stop offset="1" stop-color="#DD3132"/>
</linearGradient>
<linearGradient id="paint4_linear_701_3960" x1="5" y1="0" x2="5" y2="10" gradientUnits="userSpaceOnUse">
<stop stop-color="#A8156E"/>
<stop offset="1" stop-color="#DD3132"/>
</linearGradient>
<linearGradient id="paint5_linear_701_3960" x1="5" y1="0" x2="5" y2="10" gradientUnits="userSpaceOnUse">
<stop stop-color="#A8156E"/>
<stop offset="1" stop-color="#DD3132"/>
</linearGradient>
<linearGradient id="paint6_linear_701_3960" x1="56.5843" y1="180.938" x2="52.6408" y2="185.92" gradientUnits="userSpaceOnUse">
<stop stop-color="#EF4021"/>
<stop offset="0.526042" stop-color="#7CA843"/>
<stop offset="1" stop-color="#1D9AD4"/>
</linearGradient>
<linearGradient id="paint7_linear_701_3960" x1="69.1351" y1="178.46" x2="47.4087" y2="198.341" gradientUnits="userSpaceOnUse">
<stop stop-color="#EF4021"/>
<stop offset="0.526042" stop-color="#7CA843"/>
<stop offset="1" stop-color="#1D9AD4"/>
</linearGradient>
<linearGradient id="paint8_linear_701_3960" x1="676.141" y1="449.153" x2="675.816" y2="456.774" gradientUnits="userSpaceOnUse">
<stop stop-color="#1D13DA"/>
<stop offset="1" stop-color="#1C15A6"/>
</linearGradient>
<linearGradient id="paint9_linear_701_3960" x1="676.263" y1="460.835" x2="676.217" y2="463.679" gradientUnits="userSpaceOnUse">
<stop stop-color="#1D13DA"/>
<stop offset="1" stop-color="#1C15A6"/>
</linearGradient>
<linearGradient id="paint10_linear_701_3960" x1="100.592" y1="454.192" x2="100.335" y2="462.562" gradientUnits="userSpaceOnUse">
<stop stop-color="#FE7500"/>
<stop offset="1" stop-color="#EA500F"/>
</linearGradient>
<linearGradient id="paint11_linear_701_3960" x1="332.912" y1="404.271" x2="332.577" y2="415.005" gradientUnits="userSpaceOnUse">
<stop stop-color="#DC5160"/>
<stop offset="1" stop-color="#B52B3A"/>
</linearGradient>
<linearGradient id="paint12_linear_701_3960" x1="345.766" y1="400.357" x2="345.527" y2="406.105" gradientUnits="userSpaceOnUse">
<stop stop-color="#DC5160"/>
<stop offset="1" stop-color="#B52B3A"/>
</linearGradient>
<linearGradient id="paint13_linear_701_3960" x1="345.938" y1="402.627" x2="345.817" y2="405.579" gradientUnits="userSpaceOnUse">
<stop stop-color="#DC5160"/>
<stop offset="1" stop-color="#B52B3A"/>
</linearGradient>
<linearGradient id="paint14_linear_701_3960" x1="336.073" y1="409.677" x2="335.927" y2="413.947" gradientUnits="userSpaceOnUse">
<stop stop-color="#DC5160"/>
<stop offset="1" stop-color="#B52B3A"/>
</linearGradient>
<clipPath id="clip0_701_3960">
<rect width="22.3636" height="18.1039" fill="white" transform="translate(330.117 398.779)"/>
</clipPath>
<clipPath id="clip1_701_3960">
<rect width="62" height="62" fill="white" transform="translate(253 411)"/>
</clipPath>
</defs>
</svg>
