<svg width="229" height="325" viewBox="0 0 229 325" fill="none" xmlns="http://www.w3.org/2000/svg">
<path d="M229 325H5.02794V265.909L111.072 154.545C122.651 142.121 130.574 132.576 134.84 125.909C139.411 118.939 141.697 112.121 141.697 105.455C141.697 97.2727 139.106 90.9091 133.926 86.3636C129.051 81.5152 122.194 79.0909 113.357 79.0909C94.1597 79.0909 79.8377 90.1515 70.3912 112.273L0 73.1818C10.0559 49.8485 24.9874 31.8182 44.7944 19.0909C64.9062 6.36364 87.4557 0 112.443 0C142.915 0 168.969 9.09091 190.605 27.2727C212.545 45.1515 223.515 69.697 223.515 100.909C223.515 118.485 219.401 135.152 211.174 150.909C202.946 166.364 189.995 183.182 172.321 201.364L128.898 246.364H229V325Z" fill="url(#paint0_linear_52_142)"/>
<defs>
<linearGradient id="paint0_linear_52_142" x1="114.5" y1="0" x2="114.5" y2="325" gradientUnits="userSpaceOnUse">
<stop stop-color="#7016CF" stop-opacity="0.5"/>
<stop offset="1" stop-color="#BB80FA" stop-opacity="0.1"/>
</linearGradient>
</defs>
</svg>
