<svg width="232" height="325" viewBox="0 0 232 325" fill="none" xmlns="http://www.w3.org/2000/svg">
<path d="M217.415 64.0909L164.086 129.545C184.749 135.909 201.158 146.97 213.312 162.727C225.771 178.182 232 196.667 232 218.182C232 252.121 220.757 278.485 198.271 297.273C176.089 315.758 148.286 325 114.861 325C87.8166 325 64.1153 318.939 43.7564 306.818C23.3975 294.394 8.81205 276.515 0 253.182L71.1041 212.727C77.7891 234.848 92.3746 245.909 114.861 245.909C126.407 245.909 135.219 243.182 141.297 237.727C147.678 232.273 150.868 225 150.868 215.909C150.868 206.818 147.678 199.697 141.297 194.545C135.219 189.091 126.407 186.364 114.861 186.364H97.5403L66.0904 140L117.139 77.7273H10.0275V0H217.415V64.0909Z" fill="url(#paint0_linear_52_755)"/>
<defs>
<linearGradient id="paint0_linear_52_755" x1="116" y1="0" x2="116" y2="325" gradientUnits="userSpaceOnUse">
<stop stop-color="#B7295F"/>
<stop offset="1" stop-color="#C23755"/>
</linearGradient>
</defs>
</svg>
