<svg width="235" height="327" viewBox="0 0 235 327" fill="none" xmlns="http://www.w3.org/2000/svg">
<path d="M103.182 112.506H125.909C157.424 112.506 183.333 121.653 203.636 139.947C224.545 158.241 235 184.157 235 217.695C235 252.453 223.788 279.436 201.364 298.645C178.939 317.548 151.061 327 117.727 327C89.2424 327 64.697 320.902 44.0909 308.706C23.7879 296.51 9.09091 278.522 0 254.74L70.9091 214.036C77.5758 236.294 93.1818 247.422 117.727 247.422C129.242 247.422 138.03 244.831 144.091 239.648C150.455 234.159 153.636 226.842 153.636 217.695C153.636 208.243 150.455 200.926 144.091 195.743C138.03 190.559 129.697 187.968 119.091 187.968H17.2727L30.4545 0H217.727V78.2056H105.455L103.182 112.506Z" fill="url(#paint0_linear_52_864)"/>
<defs>
<linearGradient id="paint0_linear_52_864" x1="117.5" y1="0" x2="117.5" y2="327" gradientUnits="userSpaceOnUse">
<stop stop-color="#E75609"/>
<stop offset="1" stop-color="#F16406"/>
</linearGradient>
</defs>
</svg>
