<svg width="46" height="31" viewBox="0 0 46 31" fill="none" xmlns="http://www.w3.org/2000/svg">
<path d="M23 0C12.5455 0 3.61727 6.42733 0 15.5C3.61727 24.5727 12.5455 31 23 31C33.4545 31 42.3827 24.5727 46 15.5C42.3827 6.42733 33.4545 0 23 0ZM23 25.8333C17.2291 25.8333 12.5455 21.204 12.5455 15.5C12.5455 9.796 17.2291 5.16667 23 5.16667C28.7709 5.16667 33.4545 9.796 33.4545 15.5C33.4545 21.204 28.7709 25.8333 23 25.8333ZM23 9.3C19.5291 9.3 16.7273 12.0693 16.7273 15.5C16.7273 18.9307 19.5291 21.7 23 21.7C26.4709 21.7 29.2727 18.9307 29.2727 15.5C29.2727 12.0693 26.4709 9.3 23 9.3Z" fill="#BB2D3C"/>
</svg>
