<svg width="52" height="45" viewBox="0 0 52 45" fill="none" xmlns="http://www.w3.org/2000/svg">
<path fill-rule="evenodd" clip-rule="evenodd" d="M0 16.0714C0 7.19679 8.63357 0 19.2857 0C28.6971 0 36.5239 5.62178 38.2211 13.0532C37.2825 12.9375 36.3311 12.8571 35.3571 12.8571C24.7211 12.8571 16.0714 20.0668 16.0714 28.9286C16.0714 29.9604 16.2 30.9664 16.425 31.9468C14.7761 31.7443 13.2332 31.3104 11.7482 30.7832L4.82143 33.75L7.36393 28.665C2.88643 25.7271 0 21.1886 0 16.0714ZM10.4464 9.64286C10.4464 10.9736 11.5264 12.0536 12.8571 12.0536C14.1879 12.0536 15.2679 10.9736 15.2679 9.64286C15.2679 8.31214 14.1879 7.23214 12.8571 7.23214C11.5264 7.23214 10.4464 8.31214 10.4464 9.64286ZM23.3036 9.64286C23.3036 10.9736 24.3836 12.0536 25.7143 12.0536C27.045 12.0536 28.125 10.9736 28.125 9.64286C28.125 8.31214 27.045 7.23214 25.7143 7.23214C24.3836 7.23214 23.3036 8.31214 23.3036 9.64286ZM35.3576 16.0713C44.2322 16.0713 51.429 21.8281 51.429 28.9284C51.429 33.0395 48.9733 36.6588 45.219 39.0116L48.2147 44.9999L39.5522 41.2874C38.2054 41.5799 36.8168 41.7856 35.3576 41.7856C26.4829 41.7856 19.2861 36.0288 19.2861 28.9284C19.2861 21.8281 26.4829 16.0713 35.3576 16.0713ZM28.1254 25.7141C28.1254 27.0449 29.2054 28.1249 30.5361 28.1249C31.8668 28.1249 32.9468 27.0449 32.9468 25.7141C32.9468 24.3834 31.8668 23.3034 30.5361 23.3034C29.2054 23.3034 28.1254 24.3834 28.1254 25.7141ZM37.7683 25.7141C37.7683 27.0449 38.8483 28.1249 40.179 28.1249C41.5097 28.1249 42.5897 27.0449 42.5897 25.7141C42.5897 24.3834 41.5097 23.3034 40.179 23.3034C38.8483 23.3034 37.7683 24.3834 37.7683 25.7141Z" fill="url(#paint0_linear_52_220)"/>
<defs>
<linearGradient id="paint0_linear_52_220" x1="7.36686" y1="8.49238" x2="6.30304" y2="39.5708" gradientUnits="userSpaceOnUse">
<stop stop-color="#3BBF78"/>
<stop offset="1" stop-color="#209A84"/>
</linearGradient>
</defs>
</svg>
