<svg width="50" height="38" viewBox="0 0 50 38" fill="none" xmlns="http://www.w3.org/2000/svg">
<path fill-rule="evenodd" clip-rule="evenodd" d="M17.551 0C14.0404 9.62801 10.4805 11.9344 10.4805 11.9344L10.4805 11.9344C10.4805 11.9344 13.5398 13.3886 14.7933 14.0905C16.548 12.2354 17.9524 10.4303 17.9524 10.4303C17.9524 10.4303 19.9583 9.52767 21.1114 9.07638C19.1408 13.4391 16.2475 16.4474 16.2475 16.4474L18.7546 18.6539C20.1085 17.3001 22.5152 15.043 22.5152 15.043H24.7218V18.8541H16.0468V21.8629L24.7717 21.9128C24.7717 21.9128 24.8216 26.2256 24.8216 29.3842C20.7248 29.431 20.8211 27.4028 20.8559 26.6707C20.8585 26.6143 20.8609 26.5656 20.8609 26.5261C20.8609 25.975 21.1614 23.8184 21.1614 23.8184L15.0439 23.7684C15.0439 23.7684 14.693 24.9721 14.693 26.4258C14.693 30.7386 16.7986 32.2427 18.2534 32.8942C19.7077 33.5457 22.1144 33.4464 22.1144 33.4464C22.9671 33.4963 26.1327 33.5587 31.0899 32.0925C34.6503 31.0391 36.104 29.3841 36.104 29.3841L37.0066 32.6436L41.8711 30.7386L38.6116 22.6652C38.6116 22.6652 36.0042 23.5678 34.7002 23.8683C35.1097 25.179 35.1513 25.5196 35.2348 26.2019C35.2535 26.3548 35.2743 26.5248 35.3018 26.7268C33.246 28.3313 31.8422 28.3313 31.8422 28.3313V21.9633H40.3165V18.9544H31.8422V14.9432H40.4163V11.9344C40.4163 11.9344 27.0786 11.8845 25.0728 11.9344C26.527 10.3299 27.3292 8.67498 27.3292 8.67498C27.3292 8.67498 25.574 8.22369 24.6714 7.92266C27.0282 6.97016 31.7418 5.81696 32.4937 5.6667C33.246 5.5159 35.7032 5.11505 38.8118 5.7166C41.5925 6.2546 42.0867 8.27681 42.3037 9.16452C42.3293 9.26939 42.3511 9.35843 42.3723 9.42732C42.573 10.0793 42.5225 29.3343 42.4726 30.3372C42.4227 31.3401 41.6199 32.5438 41.6199 32.5438C40.7173 33.5966 39.0125 34.4488 37.0066 34.4488C35.0013 34.4488 32.4437 33.4957 32.4437 33.4957L31.5911 37.0063C31.5911 37.0063 33.7976 37.8085 37.9596 37.8085C42.1217 37.8085 44.4785 36.9059 46.4339 35.0509C48.3893 33.1958 48.6904 31.089 48.6904 31.089C50.0942 22.0137 49.3424 11.9843 48.6405 8.97602C47.9386 5.96775 45.1299 4.11212 42.3722 3.20951C39.614 2.30692 36.0536 2.45718 36.0536 2.45718C29.5353 2.45718 21.963 4.76356 21.963 4.76356L23.618 1.70485C23.618 1.70485 18.5534 0.350948 17.551 0ZM12.9385 4.51307C12.9385 6.70068 10.963 8.47439 8.5259 8.47439C6.08933 8.47439 4.11328 6.70067 4.11328 4.51307C4.11328 2.32548 6.08933 0.551758 8.5259 0.551758C10.963 0.551758 12.9385 2.32549 12.9385 4.51307ZM2.10623 14.4419L4.81401 10.23C4.81401 10.23 8.62453 13.1878 9.77826 14.1913L9.87576 14.276C11.0434 15.2892 12.9864 16.9752 12.9373 19.6568C12.8869 22.4144 12.0846 24.8217 11.4327 26.4766C10.7812 28.131 6.51884 36.8559 6.51884 36.8559L0 32.7943C0 32.7943 6.26933 26.9952 8.67498 23.4678C9.42732 22.3645 10.3294 19.4566 7.77238 17.9519C5.21486 16.4478 2.10623 14.4419 2.10623 14.4419Z" fill="url(#paint0_linear_52_227)"/>
<defs>
<linearGradient id="paint0_linear_52_227" x1="7.08797" y1="7.13523" x2="6.30723" y2="33.2544" gradientUnits="userSpaceOnUse">
<stop stop-color="#FE7500"/>
<stop offset="1" stop-color="#EA500F"/>
</linearGradient>
</defs>
</svg>
