<svg width="34" height="57" viewBox="0 0 34 57" fill="none" xmlns="http://www.w3.org/2000/svg">
<path fill-rule="evenodd" clip-rule="evenodd" d="M8.45063 12.7093C8.5695 13.77 9.1034 18.5342 5.11347 19.3914C1.40148 20.1921 -0.143223 16.2528 0.010376 13.9545C0.0324091 13.6248 0.0886526 13.3008 0.149098 12.9759C0.373539 11.7697 1.194 8.72875 3.78514 8.49792C6.35717 8.27292 8.25265 11.089 8.44979 12.7017L8.45063 12.7093ZM16.5328 5.68334C16.5328 8.82614 14.7483 11.3703 12.5406 11.3703C10.3313 11.3703 8.54268 8.82614 8.54268 5.68334C8.54268 2.54004 10.3318 0 12.5406 0C14.7483 0 16.5328 2.54004 16.5328 5.68334ZM27.2864 6.59006C26.9076 8.97889 25.0142 12.1315 22.0587 11.7444C19.1064 11.3662 18.4391 8.69557 18.7266 6.01723C18.9624 3.8276 21.5798 0.471161 23.6766 0.953159C25.764 1.42948 27.6735 4.20432 27.2864 6.59006ZM29.2939 11.1711C32.8165 11.1711 33.7624 14.6153 33.7624 15.7578C33.7624 15.8445 33.7651 15.9522 33.7683 16.0774C33.8072 17.6142 33.9125 21.7818 29.8636 21.8716C25.4802 21.9665 25.2975 18.9094 25.2975 16.7177C25.2975 14.4212 25.764 11.1711 29.2939 11.1711ZM22.0587 18.4331C24.6233 22.1079 28.9473 25.5173 29.2742 25.7726C29.2888 25.784 29.2989 25.7918 29.3132 25.8036C29.5855 26.0295 32.6196 28.6937 30.5283 33.6222C28.4447 38.542 21.0785 36.334 20.3957 36.1173C20.3582 36.1054 20.3282 36.0954 20.2904 36.0842C19.8739 35.9608 17.1231 35.2108 13.9664 35.9135C11.476 36.4706 9.23516 36.4693 8.20007 36.4274C7.79547 36.411 7.39081 36.4009 6.99157 36.3332C5.82896 36.1362 3.31609 35.2647 2.4501 31.4253C1.48237 27.1216 5.04284 24.4721 6.37098 23.4838C6.60595 23.3089 6.77106 23.1861 6.82885 23.1153C6.92387 22.9953 7.16089 22.7924 7.48972 22.511C8.47884 21.6646 10.2987 20.1073 11.5838 17.9547C13.3012 15.0937 18.4381 12.7993 22.0587 18.4331ZM14.4457 20.88C13.7887 20.8696 13.2505 21.3993 13.2505 22.0564V22.5744C13.2505 23.5058 12.4954 24.2609 11.564 24.2609H10.5904C10.517 24.2609 10.4448 24.2636 10.3723 24.2748C9.85229 24.3555 7.59736 24.8606 6.7425 27.6287C6.42649 29.5874 6.96204 30.7934 7.12379 31.1576C7.13505 31.183 7.14451 31.2043 7.15173 31.2215C7.2558 31.4661 8.03604 32.8071 9.94934 33.3566C10.2491 33.4427 10.5626 33.4673 10.8744 33.4673V33.4673C13.4863 33.4673 15.6037 31.35 15.6037 28.738V22.0564C15.6037 21.4138 15.0882 20.8901 14.4457 20.88V20.88ZM13.2085 29.363C13.2086 30.4903 12.2948 31.4041 11.1676 31.4041V31.4041C11.1322 31.4041 11.0977 31.4034 11.0626 31.3991C10.799 31.3667 9.60563 31.1392 9.21132 29.6485C8.98219 28.9044 9.24538 28.0446 9.36097 27.7066C9.45691 27.3996 9.86855 26.7277 10.6975 26.3804C10.8722 26.3072 11.0627 26.2843 11.2521 26.2843V26.2843C12.3324 26.2843 13.2083 27.1601 13.2084 28.2404L13.2085 29.363ZM18.0751 24.5463C17.4114 24.557 16.8789 25.0981 16.8789 25.762V30.9696C16.8789 31.1122 16.8822 31.2554 16.917 31.3937C17.0184 31.7967 17.3829 32.6855 18.6687 33.2182C19.0826 33.3896 19.5363 33.4304 19.9843 33.4304H20.8587C23.307 33.4304 25.2917 31.4457 25.2917 28.9975V25.8555C25.2917 25.1425 24.7137 24.5646 24.0008 24.5646V24.5646C23.2878 24.5646 22.7098 25.1425 22.7098 25.8555V28.9227C22.7098 30.1916 21.6812 31.2201 20.4124 31.2201V31.2201C20.3017 31.2201 20.1908 31.2136 20.0847 31.1821C19.964 31.1463 19.7943 31.0806 19.6424 30.966C19.3205 30.7232 19.3106 30.2693 19.3106 29.8661V25.762C19.3106 25.0828 18.7542 24.5353 18.0751 24.5463V24.5463Z" fill="url(#paint0_linear_52_267)"/>
<path fill-rule="evenodd" clip-rule="evenodd" d="M5.49219 43.291C2.73076 43.291 0.492188 45.5296 0.492188 48.291V51.9999C0.492188 54.7613 2.73077 56.9999 5.49219 56.9999H28.6821C31.4435 56.9999 33.6821 54.7613 33.6821 51.9999V48.291C33.6821 45.5296 31.4435 43.291 28.6821 43.291H5.49219ZM22.5424 53.0792C23.0408 53.389 23.6569 53.5438 24.391 53.5438C25.1991 53.5438 25.8489 53.3486 26.3405 52.958C26.8321 52.5674 27.0779 52.0253 27.0779 51.3317C27.0779 50.6246 26.8321 50.1094 26.3405 49.7862C26.1048 49.6246 25.8759 49.4966 25.6536 49.4023C25.4583 49.3215 25.1822 49.2272 24.8253 49.1195C24.3472 48.9781 24.024 48.8535 23.8556 48.7457C23.694 48.638 23.6132 48.5067 23.6132 48.3518C23.6132 48.2104 23.6704 48.0993 23.7849 48.0185C23.8994 47.9309 24.061 47.8871 24.2698 47.8871C24.4387 47.8871 24.5918 47.9157 24.7292 47.973C25.2068 48.1719 25.7667 48.4428 26.2129 48.181V48.181C26.5944 47.9572 26.7554 47.4661 26.4681 47.1299C26.287 46.9178 26.0761 46.7393 25.8355 46.5942C25.3775 46.3113 24.8523 46.1699 24.2597 46.1699C23.566 46.1699 22.9802 46.3719 22.502 46.776C22.0374 47.18 21.805 47.7087 21.805 48.3619C21.805 48.941 21.9835 49.4057 22.3404 49.7559C22.6973 50.106 23.2192 50.3788 23.9061 50.5741C24.391 50.7155 24.6873 50.8064 24.795 50.8468C25.1115 50.9815 25.2698 51.1498 25.2698 51.3519C25.2698 51.6684 24.9937 51.8266 24.4415 51.8266C24.1582 51.8266 23.9114 51.7701 23.7011 51.657C23.2201 51.3985 22.629 51.1307 22.157 51.4052V51.4052C21.778 51.6257 21.5962 52.1005 21.8582 52.452C22.0418 52.6984 22.2698 52.9074 22.5424 53.0792ZM14.0892 52.1898C14.2847 52.7822 13.8435 53.3923 13.2197 53.3923H13.0686C12.753 53.3923 12.4749 53.1848 12.385 52.8822V52.8822C12.2951 52.5796 12.017 52.3721 11.7013 52.3721H10.412C10.0963 52.3721 9.81823 52.5796 9.72835 52.8822V52.8822C9.63847 53.1848 9.36036 53.3923 9.04469 53.3923H8.8901C8.26306 53.3923 7.81959 52.779 8.01609 52.1835L9.60554 47.367C9.81147 46.743 10.3945 46.3214 11.0516 46.3214V46.3214C11.7088 46.3214 12.2918 46.743 12.4977 47.367L14.0892 52.1898ZM11.5648 50.1327C11.4135 49.6253 10.6945 49.6267 10.5451 50.1347V50.1347C10.4449 50.4753 10.7002 50.8165 11.0552 50.8165V50.8165C11.4111 50.8165 11.6666 50.4737 11.5648 50.1327V50.1327ZM15.0002 49.2003C15.0002 47.6104 16.2891 46.3214 17.879 46.3214V46.3214C18.8488 46.3214 19.6636 46.6615 20.3236 47.3417C20.9835 48.0218 21.3135 48.8602 21.3135 49.8569C21.3135 50.8603 20.9835 51.702 20.3236 52.3822C19.6703 53.0556 18.8555 53.3923 17.879 53.3923V53.3923C16.2891 53.3923 15.0002 52.1034 15.0002 50.5135V49.2003ZM16.8588 50.6246C16.8588 51.188 17.3156 51.6448 17.879 51.6448V51.6448C18.3639 51.6448 18.7646 51.4832 19.0811 51.1599C19.3909 50.83 19.5458 50.3956 19.5458 49.8569C19.5458 49.3114 19.3909 48.8804 19.0811 48.5639C18.7713 48.2339 18.3706 48.069 17.879 48.069V48.069C17.3156 48.069 16.8588 48.5257 16.8588 49.0892V50.6246Z" fill="url(#paint1_linear_52_267)"/>
<defs>
<linearGradient id="paint0_linear_52_267" x1="4.83846" y1="6.94442" x2="3.75609" y2="32.3417" gradientUnits="userSpaceOnUse">
<stop stop-color="#1D13DA"/>
<stop offset="1" stop-color="#1C15A6"/>
</linearGradient>
<linearGradient id="paint1_linear_52_267" x1="5.24641" y1="45.8782" x2="5.09329" y2="55.3546" gradientUnits="userSpaceOnUse">
<stop stop-color="#1D13DA"/>
<stop offset="1" stop-color="#1C15A6"/>
</linearGradient>
</defs>
</svg>
