<svg width="52" height="48" viewBox="0 0 52 48" fill="none" xmlns="http://www.w3.org/2000/svg">
<path d="M25.9895 32.283C27.4249 32.283 28.5884 31.8176 28.5884 31.2434C28.5884 30.6693 27.4249 30.2039 25.9895 30.2039C24.5542 30.2039 23.3906 30.6693 23.3906 31.2434C23.3906 31.8176 24.5542 32.283 25.9895 32.283Z" fill="url(#paint0_linear_52_281)"/>
<path d="M17.6996 29.2257C18.3233 29.4212 18.8826 29.5178 19.3639 29.5178C20.7289 29.5178 21.1187 28.7361 21.2237 28.3993C21.3932 27.8556 21.2403 27.2942 20.7913 26.8181C20.3723 26.3711 19.6987 26.0041 18.7911 25.7193C18.2682 25.5592 17.6445 25.4771 16.9386 25.4771C15.5841 25.4771 14.3699 25.7764 14.3189 25.7889C14.1432 25.8326 14.0019 25.9656 13.9488 26.1382C13.8958 26.3108 13.9353 26.5 14.0559 26.6362C14.1266 26.7162 15.8471 28.6508 17.6996 29.2257Z" fill="url(#paint1_linear_52_281)"/>
<path d="M32.6133 29.4431C33.0946 29.4431 33.6539 29.3443 34.2787 29.153C36.1301 28.575 37.8527 26.6435 37.9255 26.5624C38.044 26.4263 38.0845 26.237 38.0336 26.0645C37.9806 25.8919 37.8381 25.7589 37.6635 25.7152C37.6126 25.7017 36.3983 25.4033 35.0438 25.4033C34.3369 25.4033 33.7142 25.4854 33.1913 25.6476C32.2827 25.9293 31.6101 26.2994 31.1912 26.7444C30.7421 27.2205 30.5893 27.7818 30.7587 28.3255C30.8595 28.6603 31.2494 29.4431 32.6133 29.4431Z" fill="url(#paint2_linear_52_281)"/>
<path d="M50.7812 18.589L27.5844 0.54733C26.6467 -0.182443 25.3317 -0.182443 24.394 0.54733L1.0038 18.7397C0.127451 19.4206 -0.219763 20.5839 0.140965 21.6349C0.501694 22.6859 1.48928 23.3897 2.59953 23.3897H5.86376C4.50505 24.6402 3.6391 26.4709 3.6391 28.5157C3.6391 31.6022 5.59867 34.2146 8.27867 35.0556C10.232 38.7949 13.3226 41.7629 17.0318 43.6112V45.7642C17.0318 46.9119 17.9632 47.8433 19.1109 47.8433C20.2586 47.8433 21.19 46.9119 21.19 45.7642V45.1363C22.7473 45.5178 24.3649 45.7309 26.0219 45.7309C27.6561 45.7309 29.2498 45.5251 30.7873 45.1498V45.7631C30.7873 46.9108 31.7187 47.8423 32.8664 47.8423C34.0141 47.8423 34.9455 46.9108 34.9455 45.7631V43.6414C38.6921 41.7889 41.8108 38.8001 43.7766 35.0286C46.4171 34.1626 48.3403 31.57 48.3403 28.5137C48.3403 26.4699 47.4744 24.6382 46.1136 23.3876H49.3799C49.3851 23.3876 49.3924 23.3876 49.4017 23.3876C50.8374 23.3876 52.0006 22.2243 52.0006 20.7887C51.9985 19.8624 51.5131 19.0484 50.7812 18.589ZM41.8431 25.8493C41.8451 25.8493 41.8472 25.8482 41.8493 25.8482C43.1435 25.8482 44.18 27.0406 44.18 28.5126C44.18 29.9846 43.1435 31.176 41.8493 31.176C41.5478 31.176 41.264 31.1084 41.001 30.9868C39.8908 34.2084 37.7378 36.9487 34.9476 38.8376V35.303C34.9476 34.1554 34.0162 33.2239 32.8685 33.2239H29.6001C28.4524 33.2239 27.521 34.1554 27.521 35.303C27.521 36.4507 28.4524 37.3822 29.6001 37.3822H30.7894V40.8429C29.2862 41.3117 27.6873 41.5716 26.024 41.5716C24.3368 41.5716 22.7151 41.3065 21.1921 40.8242V37.3811H22.3803C23.528 37.3811 24.4595 36.4497 24.4595 35.302C24.4595 34.1543 23.528 33.2229 22.3803 33.2229H19.113C17.9653 33.2229 17.0339 34.1543 17.0339 35.302V38.7929C14.2676 36.9019 12.1375 34.1699 11.0387 30.965C10.7591 31.1011 10.4524 31.1739 10.1301 31.1739C8.83587 31.1739 7.79839 29.9826 7.79839 28.5105C7.79839 27.0385 8.83587 25.8461 10.1301 25.8461C10.154 25.8461 10.1769 25.8534 10.2019 25.8545C10.2071 25.1424 10.2674 24.2837 10.3682 23.3855H41.6798C41.7776 24.2837 41.8368 25.1413 41.8431 25.8493Z" fill="url(#paint3_linear_52_281)"/>
<defs>
<linearGradient id="paint0_linear_52_281" x1="24.1352" y1="30.5962" x2="24.1127" y2="32.0335" gradientUnits="userSpaceOnUse">
<stop stop-color="#5F2797"/>
<stop offset="1" stop-color="#2F2A70"/>
</linearGradient>
<linearGradient id="paint1_linear_52_281" x1="14.9808" y1="26.2396" x2="14.9209" y2="29.0323" gradientUnits="userSpaceOnUse">
<stop stop-color="#5F2797"/>
<stop offset="1" stop-color="#2F2A70"/>
</linearGradient>
<linearGradient id="paint2_linear_52_281" x1="31.7462" y1="26.1657" x2="31.6863" y2="28.9577" gradientUnits="userSpaceOnUse">
<stop stop-color="#5F2797"/>
<stop offset="1" stop-color="#2F2A70"/>
</linearGradient>
<linearGradient id="paint3_linear_52_281" x1="7.44874" y1="9.029" x2="6.2596" y2="42.0671" gradientUnits="userSpaceOnUse">
<stop stop-color="#5F2797"/>
<stop offset="1" stop-color="#2F2A70"/>
</linearGradient>
</defs>
</svg>
