<svg width="86" height="24" viewBox="0 0 86 24" fill="none" xmlns="http://www.w3.org/2000/svg">
<g clip-path="url(#clip0_84_6)">
<path d="M20.5322 23.922H2.48933C2.05928 23.9241 1.63612 23.8008 1.26137 23.5642C0.886625 23.3275 0.573172 22.9857 0.351771 22.5721C0.13037 22.1586 0.00862846 21.6876 -0.00150801 21.2054C-0.0116445 20.7231 0.0901728 20.2462 0.293952 19.8215L6.3214 7.10379H11.7415L6.68072 17.7647C6.65048 17.8283 6.63467 17.8993 6.63467 17.9714C6.63467 18.0435 6.65048 18.1145 6.68072 18.1781C6.71452 18.2411 6.76253 18.2931 6.81991 18.3287C6.87729 18.3643 6.94203 18.3823 7.0076 18.3809H16.1322C16.1873 18.3816 16.2416 18.3665 16.29 18.3372C16.3384 18.3078 16.3794 18.2652 16.4091 18.2132C16.4388 18.1611 16.4562 18.1015 16.4596 18.0399C16.4631 17.9783 16.4525 17.9167 16.429 17.8609L9.02215 0H14.2799L22.6905 20.1153C22.8594 20.5221 22.9348 20.9698 22.9096 21.4177C22.8845 21.8656 22.7598 22.2992 22.5468 22.6791C22.3327 23.061 22.0354 23.3756 21.683 23.593C21.3305 23.8105 20.9345 23.9237 20.5322 23.922ZM6.9705 8.32069L1.25139 20.3883C1.13779 20.628 1.08141 20.8965 1.08773 21.1679C1.09406 21.4392 1.16287 21.7041 1.28749 21.9368C1.4121 22.1695 1.58827 22.362 1.79887 22.4958C2.00947 22.6295 2.24733 22.6998 2.48933 22.6999H20.5415C20.761 22.7013 20.9772 22.6401 21.1698 22.5219C21.3623 22.4038 21.5249 22.2326 21.6422 22.0246C21.7595 21.8165 21.8277 21.5784 21.8404 21.3326C21.8531 21.0869 21.8097 20.8415 21.7146 20.6197L13.6007 1.2039H10.7191L17.4142 17.3252C17.516 17.566 17.5611 17.8319 17.5453 18.0977C17.5295 18.3635 17.4532 18.6204 17.3238 18.8438C17.1963 19.0684 17.0201 19.2532 16.8118 19.381C16.6034 19.5088 16.3697 19.5753 16.1322 19.5744H7.0076C6.7563 19.5714 6.50993 19.4959 6.29225 19.355C6.07456 19.2142 5.89289 19.0128 5.76476 18.7703C5.63663 18.5278 5.56636 18.2524 5.56072 17.9706C5.55508 17.6888 5.61426 17.4101 5.73256 17.1614L9.93322 8.32069H6.9705Z" fill="#CC2946"/>
<path d="M31.6813 23.922H26.4282L18.0199 3.79893C17.8497 3.39286 17.7737 2.94518 17.7989 2.49739C17.8241 2.0496 17.9497 1.61619 18.164 1.23733C18.3783 0.858476 18.6744 0.546439 19.0249 0.330143C19.3754 0.113847 19.7689 0.000295137 20.1689 1.19522e-05H38.2188C38.6478 -0.00139852 39.0699 0.12205 39.4437 0.358299C39.8175 0.594547 40.1303 0.935514 40.3515 1.34789C40.5727 1.76027 40.6948 2.22995 40.7057 2.71105C40.7167 3.19216 40.6162 3.66823 40.4141 4.09275L34.3867 16.8104H28.9782L34.0366 6.14952C34.0675 6.08565 34.0836 6.01415 34.0836 5.94151C34.0836 5.86886 34.0675 5.79737 34.0366 5.73349C34.0032 5.67066 33.9556 5.61883 33.8986 5.58322C33.8417 5.54761 33.7773 5.52949 33.7121 5.53067H24.5736C24.5176 5.52996 24.4625 5.54537 24.4133 5.57542C24.3642 5.60546 24.3228 5.64915 24.2931 5.70229C24.2632 5.75449 24.2458 5.81444 24.2425 5.87638C24.2393 5.93831 24.2503 6.00014 24.2745 6.05592L31.6813 23.922ZM27.1097 22.6999H29.982L23.2869 6.57856C23.1844 6.33625 23.1385 6.0687 23.1534 5.80103C23.1684 5.53335 23.2437 5.27431 23.3723 5.04821C23.5009 4.8221 23.6785 4.63633 23.8887 4.50833C24.0988 4.38032 24.3345 4.31427 24.5736 4.31637H33.6982C33.9531 4.31735 34.2033 4.39301 34.4241 4.53586C34.6449 4.6787 34.8285 4.88377 34.9569 5.13075C35.0853 5.37773 35.1539 5.65805 35.1559 5.94393C35.158 6.2298 35.0934 6.51132 34.9686 6.76058L30.7679 15.6013H33.7306L39.4497 3.53631C39.5664 3.29724 39.6252 3.02807 39.6202 2.7556C39.6153 2.48313 39.5468 2.21686 39.4216 1.98331C39.2964 1.74976 39.1188 1.55707 38.9065 1.42443C38.6943 1.29179 38.4548 1.22383 38.2118 1.22731H20.1689C19.9492 1.22545 19.7327 1.28637 19.5399 1.40433C19.347 1.52228 19.1841 1.69339 19.0665 1.90151C18.9489 2.10964 18.8805 2.34792 18.8677 2.59391C18.855 2.83989 18.8983 3.08547 18.9935 3.30749L27.1097 22.6999Z" fill="#263E56"/>
<path d="M68.109 9.04129C69.3562 9.71908 70.5486 10.4125 71.686 11.1215L70.7912 12.7674C69.6182 11.9613 68.5278 11.2558 67.5202 10.6508V13.095H65.7467V10.4948C64.9247 11.4617 63.96 12.2622 62.8953 12.861C62.5507 12.236 62.1673 11.6391 61.7477 11.0747C63.0327 10.6455 64.2166 9.90125 65.2135 8.89567H62.4316V4.3843H65.7444V3.41182H61.9587V1.53186H65.7467V0.182349H67.5202V1.53186H71.3499V3.41182H67.5202V4.3843H70.8468V8.90087H67.5202V10.1074L68.109 9.04129ZM64.0266 13.4305C65.8904 13.4929 68.4853 13.4825 71.8112 13.3992C71.5423 14.1793 71.3174 14.832 71.1413 15.3754C68.4196 15.3754 65.9128 15.3494 63.6209 15.2974C62.2036 15.2974 61.0808 14.7904 60.2525 13.7763C59.8784 14.2565 59.3707 14.9039 58.7294 15.7186L57.9458 13.3784C58.3183 13.0023 58.7564 12.5741 59.2602 12.0939V7.72298H58.0153V5.6428H61.0082V12.1147C61.5584 12.9919 62.5645 13.4305 64.0266 13.4305ZM59.8746 0.166748C60.5283 1.27444 61.0924 2.29893 61.5669 3.2402C60.8575 3.64844 60.2849 3.98647 59.8468 4.25949C59.3831 3.1934 58.8754 2.13771 58.3237 1.09243L59.8746 0.166748ZM69.282 6.01463H67.5202V7.28094H69.282V6.01463ZM63.9987 7.28094H65.7467V6.01463H63.9987V7.28094ZM72.414 8.58105H78.1029V2.81637H73.0237V0.736195H85.3799V2.81637H80.2265V8.58105H86.0058V10.6612H80.2334V15.5158H78.1099V10.6404H72.414V8.58105ZM73.223 4.23869L74.6905 3.12059C75.5853 4.29069 76.5126 5.5908 77.4724 7.02092L75.7824 8.27422C74.8412 6.66382 73.9881 5.31518 73.223 4.22829V4.23869ZM85.4124 4.3947C84.4248 5.72254 83.3808 7.02872 82.2804 8.31323L80.8547 7.01312C81.9057 5.79478 82.878 4.49398 83.7641 3.12059L85.4124 4.3947Z" fill="#263E56"/>
<path d="M47.1865 11.0823H51.4637V8.16489H48.0234V7.0364H51.4637V4.52719H47.6061V3.3987H50.1562C49.7142 2.72611 49.2227 2.04139 48.6818 1.34453L49.521 0.624268C50.065 1.27779 50.6059 1.95211 51.1438 2.64724L50.2628 3.3987H52.7434C53.3725 2.52483 53.9399 1.5972 54.4403 0.624268L55.5438 1.37573C55.0307 2.09859 54.5161 2.77291 53.9999 3.3987H56.7053V4.52719H52.6089V7.0364H56.0747V8.16489H52.6089V11.0823H56.9417V12.2212H52.6089V16.0826H51.4637V12.2212H47.1865V11.0823Z" fill="#CC2946"/>
<path d="M45.4936 9.57715C45.8832 9.82172 46.2849 10.0414 46.6967 10.235C46.1543 11.991 45.5762 13.8978 44.9627 15.9555L43.7178 15.2794C44.4415 13.4336 45.0353 11.527 45.4936 9.57715Z" fill="#CC2946"/>
<path d="M43.9853 4.94092C44.8523 5.5355 45.7371 6.20462 46.6397 6.94829L45.8584 8.09238C45.0443 7.32913 44.193 6.61731 43.3083 5.9602L43.9853 4.94092Z" fill="#CC2946"/>
<path d="M44.6557 0.874512C45.6247 1.59737 46.4964 2.3133 47.2706 3.02229L46.501 4.10398C45.6062 3.21817 44.7561 2.45024 43.9509 1.80019L44.6557 0.874512Z" fill="#CC2946"/>
<path d="M47.3749 23.9219H46.8904L46.4963 22.7466H44.9129L44.5397 23.9219H44.0459L45.4786 19.7329H45.9306L47.3749 23.9219ZM46.3642 22.3123L45.766 20.5416C45.7411 20.4496 45.7217 20.3557 45.7081 20.2608C45.6951 20.3561 45.6749 20.45 45.6478 20.5416L45.0682 22.3253L46.3642 22.3123Z" fill="#CC2946"/>
<path d="M47.7554 23.7581V23.1783C47.8191 23.2414 47.8901 23.2948 47.9664 23.3369C48.0505 23.3844 48.1382 23.4235 48.2283 23.4539C48.3178 23.4864 48.4092 23.5116 48.5019 23.5293C48.5861 23.5462 48.6714 23.5549 48.7569 23.5553C48.9685 23.573 49.1796 23.5147 49.3596 23.3889C49.4258 23.3329 49.4786 23.2595 49.5134 23.1751C49.5482 23.0908 49.5639 22.9981 49.559 22.9053C49.5618 22.8017 49.5394 22.6992 49.4941 22.6088C49.4445 22.5211 49.3818 22.4437 49.3086 22.38C49.2223 22.3048 49.13 22.2386 49.0328 22.1824C48.9261 22.1174 48.8009 22.0524 48.6873 21.9822C48.5738 21.912 48.4347 21.834 48.3234 21.756C48.2163 21.6829 48.1174 21.5956 48.029 21.496C47.9467 21.4065 47.8798 21.3007 47.8319 21.1839C47.7828 21.0639 47.7567 20.9337 47.7554 20.8017C47.7514 20.627 47.7899 20.4544 47.8667 20.3025C47.9411 20.1637 48.0415 20.0448 48.1611 19.954C48.2889 19.8597 48.43 19.7902 48.5784 19.7486C48.7299 19.7048 48.8856 19.6821 49.042 19.681C49.317 19.6609 49.5923 19.7125 49.8465 19.8318V20.3831C49.5943 20.2003 49.298 20.1095 48.998 20.123C48.9021 20.1227 48.8065 20.134 48.7128 20.1568C48.6232 20.1777 48.5371 20.2146 48.4578 20.2661C48.3851 20.3157 48.3227 20.3822 48.2747 20.4611C48.2259 20.5491 48.2017 20.6514 48.2052 20.7549C48.2022 20.8503 48.2206 20.945 48.2585 21.0305C48.2967 21.1135 48.3505 21.1862 48.4161 21.2437C48.4945 21.3156 48.5791 21.3783 48.6688 21.4309L49.0142 21.6312C49.1487 21.704 49.2739 21.782 49.3944 21.8626C49.5076 21.9362 49.6133 22.0233 49.7097 22.1226C49.798 22.2179 49.871 22.3296 49.9253 22.4528C49.9789 22.5822 50.0059 22.7236 50.0041 22.8663C50.0082 23.0472 49.9707 23.2263 49.8952 23.3863C49.8278 23.5297 49.7298 23.652 49.61 23.7425C49.4807 23.8349 49.3379 23.9009 49.1881 23.9376C49.022 23.9777 48.8526 23.9977 48.6827 23.9974C48.6099 23.9964 48.5371 23.9912 48.4648 23.9818C48.3767 23.9818 48.2886 23.9532 48.1982 23.935C48.1117 23.9155 48.0265 23.8894 47.9432 23.8569C47.8769 23.8337 47.8137 23.8004 47.7554 23.7581Z" fill="#CC2946"/>
<path d="M52.0658 22.6529H50.6401V22.0081H52.0658V22.6529Z" fill="#263E56"/>
<path d="M53.6936 22.4836V23.9215H52.8567V19.7378H54.1735C55.1147 19.7378 55.5853 20.1833 55.5853 21.0743C55.5914 21.2693 55.5576 21.4632 55.4865 21.6413C55.4153 21.8193 55.3088 21.9767 55.1749 22.1014C54.8694 22.3751 54.4851 22.5139 54.0946 22.4914L53.6936 22.4836ZM53.6936 20.4633V21.7634H54.0158C54.4632 21.7634 54.6881 21.5423 54.6881 21.1029C54.6881 20.6635 54.4563 20.4581 54.0158 20.4581L53.6936 20.4633Z" fill="#263E56"/>
<path d="M59.409 23.9219H58.4933L58.2267 22.991H56.8984L56.6364 23.9219H55.7253L57.0838 19.7329H58.0807L59.409 23.9219ZM58.0343 22.2655L57.6333 20.8588C57.6003 20.736 57.5793 20.6096 57.5707 20.4818H57.5498C57.5407 20.6055 57.5189 20.7277 57.4849 20.8458L57.0792 22.2655H58.0343Z" fill="#263E56"/>
<path d="M62.5504 23.7789C62.2137 23.9397 61.8496 24.0151 61.484 23.9999C61.236 24.0149 60.988 23.9723 60.7555 23.8747C60.5229 23.7772 60.3108 23.6268 60.1324 23.4331C59.9652 23.2305 59.8357 22.9925 59.7513 22.7332C59.6669 22.4738 59.6294 22.1982 59.641 21.9224C59.6298 21.623 59.6731 21.3243 59.7684 21.0444C59.8637 20.7646 60.0088 20.5094 60.195 20.2946C60.3829 20.0851 60.6074 19.9213 60.8543 19.8135C61.1012 19.7057 61.3653 19.6561 61.63 19.668C61.9449 19.6578 62.2589 19.7106 62.5573 19.824V20.7315C62.2999 20.5579 62.0046 20.4679 61.7042 20.4714C61.5477 20.4639 61.3915 20.4928 61.2455 20.5564C61.0994 20.6199 60.9667 20.7167 60.8557 20.8407C60.7449 20.9758 60.6592 21.1344 60.6039 21.3073C60.5485 21.4801 60.5246 21.6636 60.5335 21.847C60.5183 22.2015 60.6273 22.5486 60.8372 22.8142C60.9438 22.9356 61.0719 23.0304 61.2133 23.0927C61.3547 23.1549 61.5061 23.1832 61.6578 23.1757C61.9731 23.1818 62.284 23.092 62.5573 22.9156L62.5504 23.7789Z" fill="#263E56"/>
<path d="M64.3563 19.7383V20.4689H64.0434V23.1966H64.3563V23.922H62.8889V23.1966H63.2019V20.4689H62.8889V19.7383H64.3563Z" fill="#263E56"/>
<path d="M67.0501 20.5079H65.7334V21.535H66.9435V22.2995H65.7334V23.922H64.8918V19.7383H67.0501V20.5079Z" fill="#263E56"/>
<path d="M68.819 19.7383V20.4689H68.506V23.1966H68.819V23.922H67.3516V23.1966H67.6645V20.4689H67.3516V19.7383H68.819Z" fill="#263E56"/>
<path d="M72.0319 23.7789C71.6944 23.9396 71.3296 24.0151 70.9632 23.9999C70.7153 24.0149 70.4673 23.9723 70.2347 23.8747C70.0021 23.7772 69.79 23.6268 69.6117 23.4331C69.4445 23.2305 69.3149 22.9925 69.2305 22.7332C69.1461 22.4738 69.1086 22.1982 69.1202 21.9224C69.1094 21.6231 69.153 21.3245 69.2482 21.0447C69.3435 20.7649 69.4884 20.5097 69.6743 20.2946C69.8622 20.0851 70.0866 19.9213 70.3335 19.8135C70.5804 19.7057 70.8445 19.6561 71.1092 19.668C71.4241 19.6583 71.738 19.7112 72.0365 19.824V20.7315C71.778 20.5587 71.4821 20.4688 71.1811 20.4714C71.0246 20.4639 70.8684 20.4928 70.7224 20.5564C70.5764 20.6199 70.4437 20.7167 70.3326 20.8407C70.2206 20.977 70.1343 21.1374 70.0789 21.3121C70.0236 21.4868 70.0003 21.6723 70.0104 21.8574C69.9952 22.2119 70.1042 22.559 70.3141 22.8246C70.4207 22.946 70.5488 23.0408 70.6902 23.1031C70.8316 23.1653 70.983 23.1936 71.1348 23.1861C71.4508 23.1923 71.7624 23.1025 72.0365 22.926L72.0319 23.7789Z" fill="#263E56"/>
<path d="M72.968 24.0008C72.8431 24.0054 72.7215 23.955 72.6294 23.8603C72.5856 23.8171 72.5508 23.7638 72.5271 23.7041C72.5035 23.6443 72.4917 23.5796 72.4925 23.5143C72.4913 23.4487 72.5034 23.3838 72.5279 23.3243C72.5525 23.2648 72.5887 23.2123 72.634 23.1708C72.7306 23.08 72.8535 23.0319 72.9796 23.0356C73.1059 23.0302 73.2293 23.0785 73.3252 23.1708C73.3688 23.2134 73.4035 23.2663 73.4267 23.3257C73.45 23.385 73.4613 23.4494 73.4597 23.5143C73.4612 23.5805 73.4497 23.6462 73.4261 23.7069C73.4024 23.7676 73.3672 23.8217 73.3229 23.8655C73.2236 23.9583 73.0971 24.0065 72.968 24.0008Z" fill="#263E56"/>
<path d="M76.8043 23.7789C76.4676 23.9397 76.1035 24.0151 75.7379 24C75.49 24.0151 75.2419 23.9725 75.0093 23.875C74.7767 23.7774 74.5646 23.627 74.3864 23.4331C74.2185 23.231 74.0885 22.9931 74.0041 22.7336C73.9197 22.4741 73.8825 22.1983 73.8949 21.9224C73.8838 21.6233 73.927 21.3248 74.0218 21.045C74.1167 20.7652 74.2612 20.5099 74.4466 20.2946C74.635 20.085 74.8598 19.9212 75.1071 19.8134C75.3544 19.7056 75.6188 19.6561 75.8839 19.668C76.1988 19.658 76.5128 19.7109 76.8112 19.824V20.7315C76.5535 20.5587 76.2584 20.4687 75.9581 20.4715C75.8013 20.4656 75.6452 20.4964 75.4995 20.5617C75.3539 20.627 75.2219 20.7256 75.112 20.8511C75.0008 20.9861 74.9148 21.1446 74.8591 21.3175C74.8033 21.4903 74.779 21.6738 74.7874 21.8574C74.7719 22.2124 74.8818 22.56 75.0934 22.8247C75.1999 22.9462 75.328 23.0413 75.4694 23.1035C75.6108 23.1658 75.7623 23.1939 75.9141 23.1861C76.2294 23.1922 76.5402 23.1024 76.8136 22.9261L76.8043 23.7789Z" fill="#263E56"/>
<path d="M79.0331 23.9999C78.7908 24.0102 78.5493 23.9634 78.3241 23.8627C78.0989 23.7619 77.8951 23.6093 77.7256 23.4149C77.5553 23.2108 77.4229 22.9707 77.3361 22.7087C77.2493 22.4466 77.21 22.1678 77.2202 21.8885C77.1969 21.2983 77.3809 20.7214 77.7326 20.2816C77.9073 20.0771 78.1187 19.9166 78.353 19.8108C78.5872 19.705 78.8388 19.6563 79.0911 19.6679C79.3315 19.6578 79.571 19.7049 79.794 19.8062C80.017 19.9075 80.2183 20.0606 80.3846 20.2556C80.724 20.6785 80.9014 21.2343 80.8784 21.8027C80.8909 22.094 80.8521 22.3851 80.7642 22.6595C80.6763 22.9339 80.541 23.1862 80.3661 23.4018C80.194 23.6013 79.9863 23.7577 79.7566 23.8608C79.5269 23.9638 79.2803 24.0112 79.0331 23.9999ZM79.0679 20.4818C78.934 20.4774 78.801 20.5088 78.6801 20.5735C78.5592 20.6382 78.4537 20.7342 78.3724 20.8536C78.1861 21.1395 78.0921 21.488 78.1058 21.8417C78.0862 22.1911 78.1746 22.5373 78.3562 22.822C78.4363 22.9385 78.5397 23.0321 78.6582 23.0954C78.7766 23.1586 78.9066 23.1897 79.0377 23.186C79.1702 23.1921 79.3022 23.1633 79.4229 23.1019C79.5437 23.0405 79.65 22.9482 79.7332 22.8324C79.9162 22.5502 80.0063 22.2056 79.9882 21.8573C80.0071 21.4979 79.9199 21.1415 79.7402 20.8432C79.6626 20.7265 79.5608 20.6325 79.4437 20.5696C79.3266 20.5066 79.1976 20.4765 79.0679 20.4818Z" fill="#263E56"/>
<path d="M85.7513 23.922H84.9214V21.4206C84.9214 21.1606 84.9214 20.8512 84.9515 20.5235H84.9306C84.9032 20.7118 84.8645 20.8977 84.8147 21.08L83.9384 23.9402H83.2429L82.3527 21.1216C82.3038 20.9291 82.2644 20.7338 82.2345 20.5365H82.2113C82.2345 20.95 82.2461 21.3166 82.2461 21.6234V23.922H81.488V19.7383H82.719L83.4817 22.2215C83.542 22.4161 83.587 22.6162 83.6162 22.8195H83.6301C83.6788 22.5881 83.7275 22.3879 83.7785 22.2163L84.5412 19.7383H85.742L85.7513 23.922Z" fill="#263E56"/>
</g>
<defs>
<clipPath id="clip0_84_6">
<rect width="86" height="24" fill="white"/>
</clipPath>
</defs>
</svg>
