<svg width="19" height="18" viewBox="0 0 19 18" fill="none" xmlns="http://www.w3.org/2000/svg">
<path d="M16.73 12.26L14.19 11.97C13.58 11.9 12.98 12.11 12.55 12.54L10.71 14.38C7.88004 12.94 5.56004 10.63 4.12004 7.79001L5.97004 5.94001C6.40004 5.51001 6.61004 4.91001 6.54004 4.30001L6.25004 1.78001C6.13004 0.77001 5.28004 0.0100098 4.26004 0.0100098H2.53004C1.40004 0.0100098 0.460041 0.95001 0.530041 2.08001C1.06004 10.62 7.89004 17.44 16.42 17.97C17.55 18.04 18.49 17.1 18.49 15.97V14.24C18.5 13.23 17.74 12.38 16.73 12.26Z" fill="#263E56"/>
</svg>
