<svg width="24" height="24" viewBox="0 0 24 24" fill="none" xmlns="http://www.w3.org/2000/svg">
<path d="M12 0C5.37259 0 0 5.37259 0 12C0 18.6274 5.37259 24 12 24C18.6274 24 24 18.6274 24 12C24 5.37259 18.6274 0 12 0ZM19.6166 5.01499L16.6235 19.0589C16.6166 19.0859 16.6032 19.1107 16.5845 19.1312C16.5657 19.1517 16.5421 19.1673 16.5159 19.1765C16.4897 19.1857 16.4615 19.1883 16.4341 19.184C16.4066 19.1797 16.3806 19.1687 16.3584 19.152L11.6414 15.7993L9.00826 18.2953C8.98588 18.3129 8.95974 18.3251 8.93188 18.3309C8.90401 18.3367 8.87519 18.3359 8.84766 18.3287C8.82014 18.3215 8.79466 18.308 8.77322 18.2893C8.75178 18.2706 8.73497 18.2471 8.7241 18.2208L6.92434 12.9869L1.99896 11.4782C1.96577 11.4671 1.93692 11.4458 1.91648 11.4173C1.89605 11.3889 1.88505 11.3548 1.88505 11.3198C1.88505 11.2848 1.89605 11.2507 1.91648 11.2222C1.93692 11.1938 1.96577 11.1725 1.99896 11.1614C11.073 7.82741 17.9306 5.35013 19.3894 4.82861C19.5219 4.77288 19.6356 4.88462 19.6166 5.01499Z" fill="#263E56"/>
</svg>
