<svg width="33" height="32" viewBox="0 0 33 32" fill="none" xmlns="http://www.w3.org/2000/svg">
<path d="M28.6016 15.2381H26.3159V9.14286C26.3159 7.46667 24.9445 6.09524 23.2683 6.09524H17.173V3.80952C17.173 1.70667 15.4664 0 13.3635 0C11.2607 0 9.55399 1.70667 9.55399 3.80952V6.09524H3.45875C1.78256 6.09524 0.426371 7.46667 0.426371 9.14286V14.9333H2.69685C4.96732 14.9333 6.81113 16.7771 6.81113 19.0476C6.81113 21.3181 4.96732 23.1619 2.69685 23.1619H0.411133V28.9524C0.411133 30.6286 1.78256 32 3.45875 32H9.24923V29.7143C9.24923 27.4438 11.093 25.6 13.3635 25.6C15.634 25.6 17.4778 27.4438 17.4778 29.7143V32H23.2683C24.9445 32 26.3159 30.6286 26.3159 28.9524V22.8571H28.6016C30.7045 22.8571 32.4111 21.1505 32.4111 19.0476C32.4111 16.9448 30.7045 15.2381 28.6016 15.2381Z" fill="#CC2946"/>
</svg>
