<svg width="20" height="21" viewBox="0 0 20 21" fill="none" xmlns="http://www.w3.org/2000/svg">
<path d="M20 10.1348C20 4.61277 15.522 0.134766 10 0.134766C4.478 0.134766 0 4.61277 0 10.1348C0 15.6568 4.478 20.1348 10 20.1348C10.0587 20.1348 10.1172 20.1336 10.1758 20.1325V12.3479H8.02734V9.84409H10.1758V8.00159C10.1758 5.86475 11.4803 4.70173 13.3864 4.70173C14.2992 4.70173 15.0838 4.76978 15.3125 4.80014V7.03342H13.9981C12.9611 7.03342 12.7603 7.52628 12.7603 8.24939V9.84409H15.2399L14.9167 12.3479H12.7603V19.7484C16.9402 18.5502 20 14.6993 20 10.1348Z" fill="white"/>
</svg>
