<svg width="20" height="15" viewBox="0 0 20 15" fill="none" xmlns="http://www.w3.org/2000/svg">
<path fill-rule="evenodd" clip-rule="evenodd" d="M17.8252 0.436125C18.6819 0.666837 19.3574 1.34219 19.5879 2.19897C20.0164 3.7639 19.9999 7.02591 19.9999 7.02591C19.9999 7.02591 19.9999 10.2713 19.5881 11.8364C19.3574 12.693 18.682 13.3685 17.8252 13.5991C16.2602 14.011 9.99996 14.011 9.99996 14.011C9.99996 14.011 3.75609 14.011 2.17467 13.5827C1.3179 13.352 0.642545 12.6765 0.411833 11.8199C0 10.2713 0 7.00943 0 7.00943C0 7.00943 0 3.7639 0.411833 2.19897C0.642392 1.34234 1.33438 0.650357 2.17452 0.419798C3.73961 0.0078125 9.99981 0.0078125 9.99981 0.0078125C9.99981 0.0078125 16.2602 0.0078125 17.8252 0.436125ZM13.2119 7.00962L8.00603 10.008V4.01127L13.2119 7.00962Z" fill="white"/>
</svg>
