<svg width="56" height="18" viewBox="0 0 56 18" fill="none" xmlns="http://www.w3.org/2000/svg">
<g clip-path="url(#clip0_52_667)">
<path d="M23.9316 17.7404H19.4578L22.256 0.315918H26.7296L23.9316 17.7404Z" fill="white"/>
<path d="M40.1499 0.741829C39.2675 0.38927 37.8679 0 36.1373 0C31.7192 0 28.6081 2.37257 28.589 5.76463C28.5523 8.26729 30.8165 9.65732 32.5099 10.4918C34.2408 11.3445 34.8291 11.901 34.8291 12.6611C34.8115 13.8284 33.4305 14.3665 32.1425 14.3665C30.3563 14.3665 29.3993 14.0891 27.9449 13.4396L27.3558 13.1612L26.7297 17.0727C27.779 17.5541 29.7122 17.9813 31.7192 18C36.4135 18 39.4695 15.6641 39.5057 12.0494C39.5236 10.0658 38.328 8.54594 35.7505 7.30397C34.1857 6.50671 33.2275 5.96912 33.2275 5.15338C33.2458 4.4118 34.038 3.65223 35.8043 3.65223C37.2587 3.61503 38.3273 3.9671 39.1368 4.31941L39.5415 4.50444L40.1499 0.741829Z" fill="white"/>
<path d="M46.0953 11.5675C46.4637 10.5665 47.8814 6.6923 47.8814 6.6923C47.8628 6.7295 48.2491 5.6728 48.47 5.0241L48.7827 6.5255C48.7827 6.5255 49.6299 10.6963 49.8139 11.5675C49.1147 11.5675 46.9789 11.5675 46.0953 11.5675ZM51.6176 0.315918H48.1571C47.09 0.315918 46.2793 0.630783 45.8188 1.76163L39.1736 17.7402H43.8678C43.8678 17.7402 44.6406 15.5896 44.8067 15.1264C45.3217 15.1264 49.8882 15.1264 50.5507 15.1264C50.6792 15.7381 51.0845 17.7402 51.0845 17.7402H55.2268L51.6176 0.315918Z" fill="white"/>
<path d="M15.7214 0.315918L11.3401 12.1977L10.8613 9.78797C10.0513 7.00741 7.51095 3.98638 4.67603 2.48425L8.68916 17.7219H13.4201L20.4521 0.315918H15.7214Z" fill="white"/>
<path d="M7.27154 0.315918H0.0736374L0 0.667985C5.61481 2.11395 9.33339 5.59939 10.8612 9.78871L9.29645 1.7806C9.03884 0.667738 8.24718 0.352628 7.27154 0.315918Z" fill="#FAA61A"/>
</g>
<defs>
<clipPath id="clip0_52_667">
<rect width="55.2273" height="18" fill="white"/>
</clipPath>
</defs>
</svg>
