<svg width="38" height="24" viewBox="0 0 38 24" fill="none" xmlns="http://www.w3.org/2000/svg">
<path d="M24.6556 2.51709H13.3496V21.0222H24.6556V2.51709Z" fill="#FF5F00"/>
<path d="M14.514 11.7722C14.5126 9.99032 14.9157 8.23146 15.6928 6.62874C16.4698 5.02602 17.6005 3.62143 18.9992 2.52127C17.2669 1.15691 15.1864 0.308495 12.9956 0.0729924C10.8048 -0.16251 8.59207 0.224399 6.61033 1.1895C4.62858 2.1546 2.95776 3.65896 1.78883 5.53064C0.619892 7.40232 0 9.5658 0 11.7738C0 13.9819 0.619892 16.1453 1.78883 18.017C2.95776 19.8887 4.62858 21.3931 6.61033 22.3582C8.59207 23.3233 10.8048 23.7102 12.9956 23.4747C15.1864 23.2392 17.2669 22.3908 18.9992 21.0264C17.6001 19.9259 16.4691 18.5208 15.6921 16.9174C14.915 15.3141 14.5121 13.5546 14.514 11.7722Z" fill="#EB001B"/>
<path d="M38.0007 11.771C38.0007 13.9792 37.3806 16.1428 36.2115 18.0145C35.0424 19.8863 33.3713 21.3906 31.3893 22.3556C29.4073 23.3205 27.1944 23.7072 25.0034 23.4713C22.8125 23.2355 20.732 22.3867 18.9998 21.0219C20.3979 19.9207 21.5283 18.5158 22.3056 16.913C23.0828 15.3102 23.4867 13.5514 23.4867 11.7693C23.4867 9.98728 23.0828 8.22851 22.3056 6.6257C21.5283 5.02289 20.3979 3.61791 18.9998 2.51677C20.732 1.15198 22.8125 0.303158 25.0034 0.0673165C27.1944 -0.168524 29.4073 0.218136 31.3893 1.1831C33.3713 2.14807 35.0424 3.6524 36.2115 5.52414C37.3806 7.39588 38.0007 9.55951 38.0007 11.7677V11.771Z" fill="#F79E1B"/>
</svg>
