<svg width="56" height="16" viewBox="0 0 56 16" fill="none" xmlns="http://www.w3.org/2000/svg">
<path fill-rule="evenodd" clip-rule="evenodd" d="M40.3909 7.22852V16.0001H45.2185V10.8021H50.6897C52.9924 10.7849 54.9485 9.30005 55.6861 7.22852H40.3909Z" fill="white"/>
<path fill-rule="evenodd" clip-rule="evenodd" d="M39.7473 0C40.0285 3.58533 43.3888 6.41624 47.4926 6.41624C47.5061 6.41624 55.8868 6.41624 55.8868 6.41624C55.9487 6.08742 55.9812 5.74804 55.9812 5.40101C55.9812 2.43101 53.6073 0.0219715 50.6708 0.000149436L39.7473 0Z" fill="url(#paint0_linear_52_681)"/>
<path fill-rule="evenodd" clip-rule="evenodd" d="M32.602 6.33093L32.6058 6.32274L32.6063 6.32287C32.6558 6.23322 32.7506 6.17259 32.8595 6.17259C33.0168 6.17259 33.1448 6.29911 33.1491 6.45683L33.1492 6.45685V15.9188H37.9768V0H33.1492C32.537 0.0205686 31.8453 0.474037 31.5882 1.03068L27.7463 9.34718C27.7369 9.38118 27.722 9.41291 27.7028 9.4414L27.7015 9.44418L27.701 9.44402C27.6429 9.52847 27.5461 9.58376 27.4365 9.58376C27.2588 9.58376 27.1147 9.43831 27.1147 9.25888V0H22.2871V15.9188H27.1147V15.917C27.7202 15.885 28.3956 15.4367 28.649 14.8881L32.5921 6.35237C32.5952 6.34507 32.5985 6.33791 32.602 6.33093Z" fill="white"/>
<path fill-rule="evenodd" clip-rule="evenodd" d="M14.5755 6.60304L11.754 15.9188H8.28118L5.45796 6.59738C5.43073 6.44811 5.30115 6.33503 5.1454 6.33503C4.96988 6.33503 4.82759 6.47866 4.82759 6.65584C4.82759 6.65719 4.82759 6.65854 4.82761 6.65989L4.82759 15.9188H0V0H4.14368H5.37775C6.26604 0 7.19691 0.695863 7.45649 1.55292L9.80595 9.31011C9.92284 9.69606 10.1125 9.69565 10.2293 9.31011L12.5787 1.55292C12.8385 0.695264 13.7691 0 14.6575 0L15.8912 0H20.0345V15.9188H15.2069V6.6599C15.2069 6.65854 15.2069 6.65719 15.2069 6.65584C15.2069 6.47866 15.0646 6.33503 14.8891 6.33503C14.7314 6.33503 14.6005 6.45098 14.5755 6.60304Z" fill="white"/>
<defs>
<linearGradient id="paint0_linear_52_681" x1="39.7473" y1="3.20812" x2="55.9812" y2="3.20812" gradientUnits="userSpaceOnUse">
<stop stop-color="#00A0E5"/>
<stop offset="1" stop-color="#0077C3"/>
</linearGradient>
</defs>
</svg>
