<svg width="54" height="23" viewBox="0 0 54 23" fill="none" xmlns="http://www.w3.org/2000/svg">
<g clip-path="url(#clip0_52_686)">
<path d="M9.87057 2.8808C9.23776 3.63555 8.22526 4.23085 7.21276 4.14581C7.0862 3.1253 7.5819 2.04101 8.16198 1.3713C8.79479 0.595295 9.90221 0.0425211 10.7987 0C10.9042 1.06303 10.4928 2.10479 9.87057 2.8808ZM10.7882 4.34778C9.32213 4.26274 8.06706 5.18757 7.37096 5.18757C6.66432 5.18757 5.59909 4.3903 4.43893 4.41156C2.93073 4.43282 1.52799 5.29388 0.758072 6.66518C-0.82396 9.40779 0.346744 13.4686 1.87604 15.7009C2.62487 16.8065 3.52135 18.0183 4.7026 17.9758C5.82057 17.9333 6.26354 17.2423 7.61354 17.2423C8.97409 17.2423 9.36432 17.9758 10.5456 17.9545C11.769 17.9333 12.5389 16.849 13.2878 15.7434C14.1421 14.4891 14.4901 13.2666 14.5112 13.2028C14.4901 13.1815 12.1487 12.278 12.1276 9.55661C12.1065 7.28174 13.9733 6.19745 14.0577 6.13367C13.003 4.56039 11.3577 4.3903 10.7882 4.34778ZM19.2573 1.265V17.8376H21.8096V12.1717H25.3428C28.5702 12.1717 30.8378 9.9393 30.8378 6.7077C30.8378 3.4761 28.6124 1.265 25.4272 1.265H19.2573ZM21.8096 3.43358H24.7522C26.9671 3.43358 28.2327 4.62417 28.2327 6.71833C28.2327 8.81249 26.9671 10.0137 24.7417 10.0137H21.8096V3.43358ZM35.4995 17.9652C37.1026 17.9652 38.5897 17.1466 39.2647 15.8497H39.3174V17.8376H41.68V9.5885C41.68 7.19669 39.7815 5.6553 36.86 5.6553C34.1495 5.6553 32.1456 7.21795 32.0717 9.36527H34.371C34.5608 8.34476 35.4995 7.67506 36.7862 7.67506C38.3471 7.67506 39.2225 8.40854 39.2225 9.75859V10.6728L36.0374 10.8641C33.0737 11.0449 31.4706 12.2673 31.4706 14.3934C31.4706 16.5407 33.1264 17.9652 35.4995 17.9652ZM36.185 15.9986C34.8245 15.9986 33.9596 15.3395 33.9596 14.3296C33.9596 13.2878 34.7928 12.6819 36.3854 12.5862L39.2225 12.4055V13.341C39.2225 14.893 37.9147 15.9986 36.185 15.9986ZM44.8335 22.3448C47.3225 22.3448 48.4932 21.3881 49.5163 18.486L53.9987 5.81476H51.4042L48.3983 15.6052H48.3456L45.3397 5.81476H42.6714L46.9956 17.8801L46.7635 18.6136C46.3733 19.8573 45.7405 20.3357 44.612 20.3357C44.4116 20.3357 44.0214 20.3144 43.8632 20.2932V22.281C44.0108 22.3236 44.6436 22.3448 44.8335 22.3448Z" fill="white"/>
</g>
<defs>
<clipPath id="clip0_52_686">
<rect width="54" height="22.3448" fill="white"/>
</clipPath>
</defs>
</svg>
