<svg width="50" height="20" viewBox="0 0 50 20" fill="none" xmlns="http://www.w3.org/2000/svg">
<g clip-path="url(#clip0_52_688)">
<path d="M23.6489 9.6569V15.4514H21.8025V1.14159H26.6996C27.2842 1.12943 27.8653 1.23264 28.4096 1.44527C28.9539 1.65789 29.4505 1.97572 29.8707 2.38041C30.2952 2.76052 30.633 3.2267 30.8615 3.7476C31.09 4.26849 31.2038 4.83205 31.1953 5.40038C31.2075 5.97176 31.0954 6.53899 30.8668 7.06321C30.6381 7.58743 30.2983 8.05623 29.8707 8.43749C29.0144 9.25043 27.9573 9.65652 26.6996 9.65576H23.6489V9.6569ZM23.6489 2.90334V7.89857H26.7455C27.085 7.90859 27.4228 7.84796 27.7374 7.72056C28.052 7.59316 28.3364 7.4018 28.5724 7.15871C28.8073 6.93142 28.9939 6.65957 29.1214 6.35923C29.2488 6.05888 29.3145 5.73614 29.3145 5.41009C29.3145 5.08404 29.2488 4.7613 29.1214 4.46095C28.9939 4.16061 28.8073 3.88875 28.5724 3.66147C28.3394 3.41326 28.0559 3.2172 27.741 3.0863C27.426 2.9554 27.0867 2.89265 26.7455 2.90219H23.6489V2.90334Z" fill="white"/>
<path d="M35.4486 5.34082C36.8134 5.34082 37.8907 5.7039 38.6805 6.43007C39.4703 7.15623 39.8648 8.15185 39.864 9.41693V15.4512H38.0979V14.0925H38.0176C37.253 15.2114 36.2361 15.7709 34.9669 15.7709C33.8835 15.7709 32.9771 15.4512 32.2477 14.8118C31.8976 14.5183 31.6178 14.1508 31.4285 13.736C31.2392 13.3212 31.1453 12.8696 31.1536 12.4141C31.1536 11.4009 31.5382 10.5952 32.3073 9.99695C33.0765 9.39866 34.1033 9.09876 35.3878 9.09724C36.4842 9.09724 37.3872 9.29705 38.0967 9.69667V9.2765C38.0988 8.96595 38.0315 8.65884 37.8995 8.37743C37.7676 8.09601 37.5745 7.84735 37.3341 7.64948C36.8458 7.2109 36.2094 6.97159 35.5518 6.97926C34.5204 6.97926 33.7042 7.41237 33.1033 8.27859L31.477 7.25899C32.3716 5.98021 33.6954 5.34082 35.4486 5.34082ZM33.0597 12.454C33.0584 12.688 33.1134 12.9188 33.2199 13.1274C33.3264 13.3359 33.4815 13.5161 33.6721 13.6529C34.0805 13.9727 34.5873 14.1421 35.1068 14.1324C35.886 14.1311 36.6329 13.8224 37.1838 13.2738C37.7955 12.7007 38.1013 12.0282 38.1013 11.2563C37.5256 10.7996 36.7228 10.5713 35.6929 10.5713C34.9428 10.5713 34.3174 10.7513 33.8166 11.1113C33.3108 11.4767 33.0597 11.9208 33.0597 12.454Z" fill="white"/>
<path d="M50.0026 5.66064L43.8371 19.7672H41.931L44.219 14.8313L40.1648 5.66064H42.1718L45.1021 12.6939H45.1422L47.9922 5.66064H50.0026Z" fill="white"/>
<path d="M16.187 8.40788C16.1877 7.84767 16.1401 7.28844 16.0448 6.73633H8.25757V9.90245H12.7177C12.6265 10.4081 12.4333 10.8902 12.1499 11.3195C11.8664 11.7489 11.4986 12.1166 11.0685 12.4006V14.4558H13.7304C15.289 13.0252 16.187 10.9095 16.187 8.40788Z" fill="#4285F4"/>
<path d="M8.25744 16.4413C10.4858 16.4413 12.3621 15.7129 13.7303 14.4569L11.0684 12.4017C10.3275 12.9018 9.37334 13.1873 8.25744 13.1873C6.10362 13.1873 4.27551 11.7418 3.6218 9.79395H0.879639V11.9119C1.56692 13.2735 2.62079 14.418 3.92359 15.2178C5.22639 16.0177 6.72684 16.4413 8.25744 16.4413Z" fill="#34A853"/>
<path d="M3.62119 9.79399C3.27559 8.7733 3.27559 7.66797 3.62119 6.64728V4.5293H0.879027C0.300863 5.67467 -0.000244141 6.93877 -0.000244141 8.22064C-0.000244141 9.5025 0.300863 10.7666 0.879027 11.912L3.62119 9.79399Z" fill="#FBBC04"/>
<path d="M8.25744 3.25409C9.43503 3.23494 10.5729 3.67789 11.4251 4.4872L13.7819 2.14087C12.2874 0.743429 10.3076 -0.023788 8.25744 5.10758e-05C6.72684 0.000120524 5.22639 0.42371 3.92359 1.22353C2.62079 2.02335 1.56692 3.16791 0.879639 4.52945L3.6218 6.64743C4.27551 4.69957 6.10362 3.25409 8.25744 3.25409Z" fill="#EA4335"/>
</g>
<defs>
<clipPath id="clip0_52_688">
<rect width="50" height="19.7674" fill="white"/>
</clipPath>
</defs>
</svg>
