<svg width="120" height="29" viewBox="0 0 120 29" fill="none" xmlns="http://www.w3.org/2000/svg">
<g clip-path="url(#clip0_52_60)">
<path d="M28.6503 28.9058H3.47411C2.87403 28.9084 2.28358 28.7594 1.76068 28.4734C1.23777 28.1875 0.800399 27.7744 0.491468 27.2747C0.182537 26.775 0.0126643 26.2059 -0.00147965 25.6232C-0.0156236 25.0405 0.126447 24.4642 0.410791 23.951L8.82117 8.58379H16.384L9.32256 21.4657C9.28037 21.5426 9.2583 21.6284 9.2583 21.7155C9.2583 21.8026 9.28037 21.8884 9.32256 21.9653C9.36972 22.0414 9.43671 22.1042 9.51678 22.1472C9.59685 22.1902 9.68717 22.212 9.77866 22.2103H22.5107C22.5875 22.2111 22.6633 22.193 22.7308 22.1575C22.7984 22.122 22.8556 22.0704 22.897 22.0076C22.9384 21.9448 22.9627 21.8727 22.9675 21.7983C22.9724 21.7238 22.9577 21.6494 22.9247 21.5819L12.5897 4.57764e-05H19.9261L31.6618 24.306C31.8975 24.7975 32.0026 25.3386 31.9676 25.8798C31.9325 26.4209 31.7585 26.9449 31.4613 27.4039C31.1625 27.8655 30.7477 28.2455 30.2559 28.5083C29.7641 28.771 29.2115 28.9078 28.6503 28.9058ZM9.72691 10.0542L1.74675 24.6359C1.58823 24.9255 1.50957 25.25 1.51839 25.5779C1.52722 25.9058 1.62324 26.2258 1.79711 26.507C1.97099 26.7882 2.21681 27.0208 2.51067 27.1824C2.80453 27.344 3.13643 27.429 3.47411 27.4291H28.6632C28.9695 27.4308 29.2711 27.3568 29.5398 27.214C29.8085 27.0713 30.0354 26.8645 30.1991 26.6131C30.3628 26.3617 30.4579 26.074 30.4756 25.777C30.4932 25.48 30.4328 25.1836 30.3 24.9155L18.9783 1.45476H14.9575L24.2995 20.9347C24.4415 21.2256 24.5045 21.5469 24.4824 21.8681C24.4603 22.1893 24.3539 22.4997 24.1734 22.7696C23.9954 23.0411 23.7496 23.2644 23.4589 23.4187C23.1682 23.5731 22.842 23.6535 22.5107 23.6525H9.77866C9.42802 23.6489 9.08425 23.5575 8.7805 23.3874C8.47675 23.2172 8.22326 22.9739 8.04447 22.6808C7.86569 22.3878 7.76763 22.055 7.75976 21.7145C7.75189 21.374 7.83447 21.0373 7.99954 20.7368L13.8609 10.0542H9.72691Z" fill="#CC1237"/>
<path d="M44.206 28.9058H36.876L25.1435 4.59037C24.9061 4.09971 24.8 3.55876 24.8352 3.01768C24.8703 2.4766 25.0456 1.95289 25.3446 1.49511C25.6437 1.03733 26.0568 0.66028 26.5459 0.398923C27.0349 0.137566 27.584 0.000356624 28.1422 1.44422e-05H53.328C53.9267 -0.00168988 54.5156 0.147478 55.0372 0.432944C55.5588 0.71841 55.9953 1.13041 56.3039 1.6287C56.6126 2.12699 56.7829 2.69452 56.7982 3.27586C56.8135 3.85719 56.6733 4.43244 56.3913 4.94541L47.981 20.3126H40.4342L47.4925 7.43068C47.5355 7.35349 47.5581 7.2671 47.5581 7.17932C47.5581 7.09154 47.5355 7.00515 47.4925 6.92797C47.4459 6.85205 47.3794 6.78942 47.2999 6.74639C47.2204 6.70336 47.1306 6.68146 47.0396 6.6829H34.2882C34.2101 6.68204 34.1332 6.70065 34.0646 6.73696C33.9961 6.77327 33.9383 6.82605 33.8968 6.89026C33.8551 6.95334 33.8308 7.02579 33.8263 7.10062C33.8217 7.17546 33.8371 7.25017 33.8709 7.31757L44.206 28.9058ZM37.827 27.4291H41.8349L32.4929 7.94909C32.3499 7.6563 32.2858 7.33302 32.3066 7.00958C32.3275 6.68613 32.4325 6.37313 32.612 6.09992C32.7914 5.8267 33.0393 5.60223 33.3325 5.44756C33.6257 5.29289 33.9546 5.21308 34.2882 5.21562H47.0202C47.3759 5.2168 47.725 5.30822 48.0331 5.48083C48.3412 5.65343 48.5975 5.90123 48.7766 6.19966C48.9557 6.4981 49.0514 6.83681 49.0543 7.18224C49.0572 7.52768 48.967 7.86784 48.7929 8.16903L42.9315 18.8516H47.0655L55.0457 4.27304C55.2084 3.98416 55.2905 3.65892 55.2836 3.32968C55.2767 3.00044 55.1811 2.67871 55.0064 2.3965C54.8317 2.11429 54.5839 1.88146 54.2877 1.72119C53.9915 1.56092 53.6573 1.4788 53.3183 1.483H28.1422C27.8356 1.48076 27.5336 1.55437 27.2644 1.69689C26.9953 1.83942 26.768 2.04618 26.6039 2.29766C26.4398 2.54914 26.3444 2.83707 26.3266 3.1343C26.3088 3.43154 26.3692 3.72828 26.5021 3.99655L37.827 27.4291Z" fill="white"/>
<path d="M95.0376 10.9245C96.7779 11.7435 98.4417 12.5813 100.029 13.438L98.7803 15.4269C97.1435 14.4529 95.6221 13.6004 94.216 12.8693V15.8228H91.7414V12.6808C90.5944 13.8491 89.2484 14.8164 87.7627 15.54C87.2819 14.7848 86.7469 14.0635 86.1614 13.3815C87.9545 12.863 89.6064 11.9636 90.9974 10.7485H87.1157V5.2973H91.7382V4.12222H86.4558V1.85061H91.7414V0.219947H94.216V1.85061H99.5598V4.12222H94.216V5.2973H98.8579V10.7548H94.216V12.2127L95.0376 10.9245ZM89.3412 16.2281C91.942 16.3035 95.5627 16.2909 100.204 16.1904C99.8283 17.1329 99.5145 17.9216 99.2687 18.5782C95.4711 18.5782 91.9732 18.5468 88.7751 18.484C86.7976 18.484 85.2309 17.8713 84.075 16.6459C83.5532 17.2262 82.8447 18.0085 81.9498 18.993L80.8564 16.1652C81.3762 15.7107 81.9875 15.1933 82.6906 14.6131V9.33154H80.9535V6.818H85.1296V14.6383C85.8973 15.6981 87.3012 16.2281 89.3412 16.2281ZM83.5478 0.201096C84.46 1.53956 85.2471 2.77748 85.9091 3.91485C84.9193 4.40814 84.1203 4.81659 83.5089 5.14649C82.862 3.8583 82.1536 2.58268 81.3837 1.31962L83.5478 0.201096ZM96.6744 7.26729H94.216V8.79741H96.6744V7.26729ZM89.3024 8.79741H91.7414V7.26729H89.3024V8.79741ZM101.045 10.3684H108.983V3.40272H101.895V0.889178H119.137V3.40272H111.946V10.3684H120.01V12.8819H111.955V18.7479H108.992V12.8568H101.045V10.3684ZM102.174 5.12135L104.221 3.77032C105.47 5.18419 106.764 6.75516 108.103 8.48322L105.745 9.99763C104.431 8.05172 103.241 6.42211 102.174 5.10879V5.12135ZM119.182 5.30987C117.804 6.91435 116.347 8.49264 114.812 10.0448L112.822 8.47379C114.289 7.00164 115.646 5.42983 116.882 3.77032L119.182 5.30987Z" fill="white"/>
<path d="M65.8438 13.3912H71.8119V9.86591H67.0115V8.50231H71.8119V5.47035H66.4292V4.10676H69.9875C69.3707 3.29404 68.6849 2.46667 67.9302 1.62463L69.1012 0.754318C69.8602 1.54399 70.615 2.3588 71.3655 3.19874L70.1363 4.10676H73.5975C74.4754 3.05083 75.267 1.92994 75.9653 0.754318L77.5051 1.66234C76.7891 2.53579 76.071 3.3506 75.3507 4.10676H79.1257V5.47035H73.4099V8.50231H78.2458V9.86591H73.4099V13.3912H79.4556V14.7673H73.4099V19.4331H71.8119V14.7673H65.8438V13.3912Z" fill="#CC1237"/>
<path d="M63.4827 11.5717C64.0264 11.8672 64.587 12.1326 65.1616 12.3666C64.4046 14.4885 63.5981 16.7925 62.742 19.2789L61.0049 18.4619C62.0147 16.2316 62.8432 13.9278 63.4827 11.5717Z" fill="#CC1237"/>
<path d="M61.3767 5.96971C62.5865 6.68817 63.8211 7.49669 65.0805 8.39528L63.9904 9.77773C62.8544 8.85547 61.6665 7.99535 60.4321 7.20135L61.3767 5.96971Z" fill="#CC1237"/>
<path d="M62.312 1.05559C63.6641 1.92904 64.8804 2.79412 65.9608 3.65082L64.8868 4.95786C63.6382 3.88751 62.4521 2.9596 61.3286 2.17411L62.312 1.05559Z" fill="#CC1237"/>
<path d="M66.1056 28.9059H65.4295L64.8796 27.4857H62.6703L62.1495 28.9059H61.4604L63.4595 23.8442H64.0903L66.1056 28.9059ZM64.6952 26.961L63.8606 24.8214C63.8258 24.7102 63.7988 24.5968 63.7798 24.482C63.7616 24.5973 63.7335 24.7108 63.6957 24.8214L62.887 26.9767L64.6952 26.961Z" fill="#CC1237"/>
<path d="M66.6361 28.708V28.0074C66.7251 28.0837 66.8241 28.1481 66.9305 28.199C67.0479 28.2564 67.1702 28.3037 67.296 28.3404C67.4208 28.3796 67.5484 28.4101 67.6777 28.4315C67.7952 28.4519 67.9142 28.4625 68.0336 28.463C68.3288 28.4844 68.6233 28.4139 68.8746 28.2619C68.9669 28.1943 69.0407 28.1055 69.0892 28.0036C69.1377 27.9016 69.1596 27.7896 69.1528 27.6775C69.1567 27.5523 69.1254 27.4285 69.0622 27.3193C68.993 27.2133 68.9055 27.1198 68.8034 27.0428C68.683 26.9519 68.5541 26.8719 68.4185 26.804C68.2697 26.7255 68.095 26.6469 67.9365 26.5621C67.778 26.4773 67.5839 26.383 67.4287 26.2888C67.2792 26.2005 67.1412 26.095 67.0178 25.9746C66.903 25.8665 66.8098 25.7386 66.7429 25.5975C66.6744 25.4526 66.638 25.2952 66.6361 25.1357C66.6305 24.9246 66.6842 24.7161 66.7914 24.5324C66.8952 24.3647 67.0354 24.221 67.2022 24.1114C67.3805 23.9974 67.5774 23.9135 67.7845 23.8632C67.9959 23.8102 68.2131 23.7828 68.4314 23.7815C68.8151 23.7572 69.1993 23.8196 69.5539 23.9637V24.6298C69.202 24.409 68.7885 24.2993 68.37 24.3156C68.2362 24.3152 68.1028 24.3289 67.9721 24.3565C67.847 24.3817 67.7269 24.4263 67.6163 24.4884C67.5148 24.5484 67.4277 24.6288 67.3607 24.7241C67.2927 24.8304 67.2589 24.954 67.2637 25.0791C67.2596 25.1944 67.2852 25.3089 67.3381 25.4122C67.3914 25.5124 67.4665 25.6003 67.558 25.6698C67.6674 25.7566 67.7855 25.8324 67.9106 25.896L68.3926 26.1379C68.5802 26.2259 68.7549 26.3202 68.9231 26.4176C69.0811 26.5065 69.2286 26.6118 69.363 26.7318C69.4863 26.8469 69.5881 26.9819 69.6639 27.1308C69.7387 27.2872 69.7763 27.4579 69.7739 27.6304C69.7796 27.849 69.7273 28.0655 69.6218 28.2587C69.5279 28.432 69.3912 28.5798 69.2239 28.6892C69.0435 28.8008 68.8442 28.8805 68.6352 28.9248C68.4035 28.9733 68.1671 28.9975 67.93 28.9971C67.8284 28.9959 67.7269 28.9896 67.626 28.9782C67.5031 28.9782 67.3801 28.9437 67.254 28.9217C67.1333 28.8982 67.0144 28.8667 66.8982 28.8274C66.8057 28.7993 66.7175 28.7591 66.6361 28.708Z" fill="#CC1237"/>
<path d="M72.6495 27.3725H70.6602V26.5934H72.6495V27.3725Z" fill="white"/>
<path d="M74.9202 27.1685V28.9059H73.7524V23.8506H75.5898C76.9031 23.8506 77.5598 24.3889 77.5598 25.4655C77.5683 25.7011 77.5211 25.9355 77.4219 26.1507C77.3226 26.3658 77.1739 26.556 76.9872 26.7066C76.5609 27.0374 76.0247 27.205 75.4798 27.1779L74.9202 27.1685ZM74.9202 24.7272V26.2981H75.3698C75.9941 26.2981 76.3079 26.0311 76.3079 25.5001C76.3079 24.9691 75.9844 24.7209 75.3698 24.7209L74.9202 24.7272Z" fill="white"/>
<path d="M82.8974 28.9059H81.6196L81.2476 27.7811H79.3941L79.0286 28.9059H77.7573L79.6529 23.8442H81.0438L82.8974 28.9059ZM80.9791 26.9045L80.4195 25.2047C80.3736 25.0563 80.3443 24.9036 80.3322 24.7491H80.3031C80.2904 24.8986 80.26 25.0462 80.2125 25.189L79.6464 26.9045H80.9791Z" fill="white"/>
<path d="M87.2807 28.7331C86.811 28.9274 86.3029 29.0186 85.7928 29.0002C85.4468 29.0183 85.1007 28.9667 84.7762 28.8489C84.4517 28.731 84.1558 28.5494 83.9069 28.3153C83.6736 28.0704 83.4928 27.7829 83.375 27.4695C83.2573 27.1561 83.205 26.8231 83.2211 26.4898C83.2055 26.1281 83.266 25.7671 83.3989 25.429C83.5318 25.0908 83.7344 24.7825 83.9942 24.523C84.2564 24.2698 84.5696 24.0719 84.9141 23.9416C85.2586 23.8113 85.6271 23.7514 85.9965 23.7657C86.4359 23.7534 86.8741 23.8173 87.2904 23.9543V25.0508C86.9312 24.8411 86.5191 24.7323 86.1001 24.7366C85.8817 24.7275 85.6637 24.7624 85.46 24.8392C85.2562 24.916 85.071 25.033 84.9161 25.1828C84.7614 25.346 84.6419 25.5377 84.5647 25.7465C84.4875 25.9554 84.4541 26.1771 84.4665 26.3987C84.4453 26.8271 84.5974 27.2465 84.8903 27.5675C85.039 27.7141 85.2178 27.8287 85.4151 27.9039C85.6123 27.9791 85.8236 28.0133 86.0354 28.0042C86.4753 28.0117 86.909 27.9031 87.2904 27.69L87.2807 28.7331Z" fill="white"/>
<path d="M89.8 23.8506V24.7335H89.3633V28.0293H89.8V28.9059H87.7524V28.0293H88.1891V24.7335H87.7524V23.8506H89.8Z" fill="white"/>
<path d="M93.5589 24.7806H91.7216V26.0217H93.4101V26.9454H91.7216V28.9059H90.5474V23.8506H93.5589V24.7806Z" fill="white"/>
<path d="M96.0271 23.8506V24.7335H95.5904V28.0293H96.0271V28.9059H93.9795V28.0293H94.4162V24.7335H93.9795V23.8506H96.0271Z" fill="white"/>
<path d="M100.511 28.7331C100.04 28.9273 99.5305 29.0185 99.0193 29.0002C98.6734 29.0183 98.3273 28.9667 98.0028 28.8489C97.6783 28.731 97.3823 28.5494 97.1335 28.3153C96.9001 28.0704 96.7193 27.7829 96.6016 27.4695C96.4839 27.1561 96.4315 26.8231 96.4477 26.4898C96.4326 26.1282 96.4934 25.7674 96.6263 25.4293C96.7592 25.0912 96.9614 24.7828 97.2208 24.523C97.483 24.2698 97.7961 24.0719 98.1407 23.9416C98.4852 23.8113 98.8537 23.7514 99.2231 23.7657C99.6625 23.7541 100.1 23.8179 100.517 23.9543V25.0508C100.156 24.842 99.7433 24.7334 99.3234 24.7366C99.105 24.7275 98.8871 24.7624 98.6833 24.8392C98.4795 24.916 98.2944 25.033 98.1395 25.1828C97.9831 25.3475 97.8627 25.5413 97.7854 25.7524C97.7082 25.9635 97.6757 26.1876 97.6898 26.4112C97.6686 26.8396 97.8207 27.2591 98.1136 27.58C98.2624 27.7266 98.4411 27.8413 98.6384 27.9165C98.8357 27.9917 99.047 28.0259 99.2587 28.0168C99.6996 28.0243 100.134 27.9157 100.517 27.7026L100.511 28.7331Z" fill="white"/>
<path d="M101.817 29.0001C101.643 29.0058 101.473 28.9449 101.345 28.8305C101.284 28.7783 101.235 28.714 101.202 28.6418C101.169 28.5697 101.153 28.4915 101.154 28.4126C101.152 28.3335 101.169 28.255 101.203 28.1831C101.238 28.1113 101.288 28.0479 101.351 27.9979C101.486 27.8882 101.657 27.8301 101.833 27.8345C102.009 27.8279 102.182 27.8863 102.315 27.9979C102.376 28.0493 102.424 28.1131 102.457 28.1848C102.489 28.2565 102.505 28.3343 102.503 28.4126C102.505 28.4926 102.489 28.572 102.456 28.6453C102.423 28.7186 102.374 28.7839 102.312 28.8368C102.174 28.9489 101.997 29.0071 101.817 29.0001Z" fill="white"/>
<path d="M107.168 28.7332C106.698 28.9274 106.19 29.0186 105.68 29.0002C105.334 29.0185 104.988 28.967 104.663 28.8492C104.339 28.7313 104.043 28.5495 103.794 28.3153C103.56 28.071 103.378 27.7836 103.261 27.4701C103.143 27.1565 103.091 26.8232 103.108 26.4898C103.093 26.1284 103.153 25.7677 103.285 25.4296C103.418 25.0915 103.619 24.7831 103.878 24.523C104.141 24.2697 104.455 24.0718 104.8 23.9415C105.145 23.8112 105.514 23.7514 105.884 23.7658C106.323 23.7537 106.761 23.8176 107.178 23.9543V25.0508C106.818 24.842 106.406 24.7333 105.987 24.7366C105.768 24.7296 105.55 24.7667 105.347 24.8457C105.144 24.9246 104.96 25.0437 104.806 25.1953C104.651 25.3585 104.531 25.5501 104.454 25.7589C104.376 25.9677 104.342 26.1895 104.354 26.4113C104.332 26.8403 104.485 27.2603 104.781 27.5801C104.929 27.727 105.108 27.8418 105.305 27.9171C105.502 27.9923 105.714 28.0263 105.926 28.0168C106.366 28.0242 106.799 27.9157 107.181 27.7026L107.168 28.7332Z" fill="white"/>
<path d="M110.279 29.0001C109.941 29.0126 109.604 28.9561 109.29 28.8343C108.976 28.7126 108.691 28.5282 108.455 28.2932C108.217 28.0466 108.033 27.7566 107.912 27.4399C107.79 27.1233 107.735 26.7864 107.75 26.4489C107.717 25.7357 107.974 25.0386 108.465 24.5072C108.708 24.2601 109.004 24.0662 109.33 23.9384C109.657 23.8105 110.008 23.7517 110.36 23.7657C110.696 23.7534 111.03 23.8103 111.341 23.9327C111.652 24.0551 111.933 24.2402 112.165 24.4758C112.639 24.9868 112.886 25.6584 112.854 26.3452C112.872 26.6971 112.818 27.0489 112.695 27.3805C112.572 27.7121 112.383 28.0169 112.139 28.2775C111.899 28.5185 111.61 28.7075 111.289 28.832C110.968 28.9566 110.624 29.0139 110.279 29.0001ZM110.328 24.7491C110.141 24.7438 109.956 24.7818 109.787 24.8599C109.618 24.938 109.471 25.0541 109.358 25.1984C109.098 25.5439 108.966 25.9649 108.986 26.3923C108.958 26.8145 109.082 27.2328 109.335 27.5769C109.447 27.7176 109.591 27.8308 109.756 27.9072C109.921 27.9836 110.103 28.0211 110.286 28.0167C110.471 28.0241 110.655 27.9893 110.823 27.9151C110.992 27.8409 111.14 27.7293 111.256 27.5894C111.512 27.2485 111.637 26.8321 111.612 26.4112C111.639 25.9769 111.517 25.5463 111.266 25.1859C111.158 25.0447 111.016 24.9313 110.852 24.8552C110.689 24.7791 110.509 24.7427 110.328 24.7491Z" fill="white"/>
<path d="M119.654 28.9059H118.496V25.8834C118.496 25.5692 118.496 25.1953 118.538 24.7994H118.509C118.47 25.0269 118.416 25.2515 118.347 25.4718L117.124 28.9279H116.154L114.912 25.5221C114.843 25.2895 114.788 25.0536 114.747 24.8152H114.714C114.747 25.3147 114.763 25.7577 114.763 26.1285V28.9059H113.705V23.8506H115.423L116.487 26.8511C116.571 27.0862 116.634 27.328 116.675 27.5738H116.694C116.762 27.2941 116.83 27.0522 116.901 26.8448L117.965 23.8506H119.641L119.654 28.9059Z" fill="white"/>
</g>
<defs>
<clipPath id="clip0_52_60">
<rect width="120" height="29" fill="white"/>
</clipPath>
</defs>
</svg>
